<svg width="19" height="20" viewBox="0 0 19 20" fill="none" xmlns="http://www.w3.org/2000/svg">
<path d="M14.6788 11.6847H17.8955C18.0888 11.878 18.1973 12.4421 18.1973 12.7154C18.1973 12.9887 18.0888 13.2508 17.8955 13.4441L12.065 19.2746C11.8706 19.4624 11.6102 19.5663 11.34 19.5639C11.0698 19.5616 10.8112 19.4532 10.6201 19.2621C10.4291 19.071 10.3207 18.8125 10.3183 18.5422C10.316 18.272 10.4198 18.0116 10.6076 17.8173L14.6788 13.7461H1.02946C0.756108 13.7461 0.49395 13.6375 0.300659 13.4442C0.107369 13.2509 -0.0012207 12.9887 -0.0012207 12.7154C-0.0012207 12.442 0.107369 12.1799 0.300659 11.9866C0.49395 11.7933 0.756108 11.6847 1.02946 11.6847L14.6788 11.6847Z" fill="#E5BC3B"/>
<path d="M3.5175 8.68469H0.300743C0.107519 8.49141 -0.00102615 7.92731 -0.00102615 7.65401C-0.00102615 7.38071 0.107519 7.1186 0.300743 6.92532L6.13131 1.09474C6.3257 0.906998 6.58605 0.803111 6.85629 0.805459C7.12654 0.807807 7.38505 0.916204 7.57614 1.1073C7.76724 1.2984 7.87563 1.55691 7.87798 1.82715C7.88033 2.09739 7.77644 2.35774 7.5887 2.55213L3.5175 6.62333H17.1668C17.4402 6.62333 17.7023 6.73192 17.8956 6.92521C18.0889 7.1185 18.1975 7.38066 18.1975 7.65401C18.1975 7.92736 18.0889 8.18952 17.8956 8.38281C17.7023 8.5761 17.4402 8.68469 17.1668 8.68469L3.5175 8.68469Z" fill="#E5BC3B"/>
</svg>
