<svg width="19" height="19" viewBox="0 0 19 19" fill="none" xmlns="http://www.w3.org/2000/svg">
<path d="M5.9375 0C6.59434 0 7.125 0.530664 7.125 1.1875V2.375H11.875V1.1875C11.875 0.530664 12.4057 0 13.0625 0C13.7193 0 14.25 0.530664 14.25 1.1875V2.375H16.0312C17.0146 2.375 17.8125 3.17285 17.8125 4.15625V5.9375H1.1875V4.15625C1.1875 3.17285 1.98535 2.375 2.96875 2.375H4.75V1.1875C4.75 0.530664 5.28066 0 5.9375 0ZM1.1875 7.125H17.8125V17.2188C17.8125 18.2021 17.0146 19 16.0312 19H2.96875C1.98535 19 1.1875 18.2021 1.1875 17.2188V7.125ZM3.5625 10.0938V11.2812C3.5625 11.6078 3.82969 11.875 4.15625 11.875H5.34375C5.67031 11.875 5.9375 11.6078 5.9375 11.2812V10.0938C5.9375 9.76719 5.67031 9.5 5.34375 9.5H4.15625C3.82969 9.5 3.5625 9.76719 3.5625 10.0938ZM8.3125 10.0938V11.2812C8.3125 11.6078 8.57969 11.875 8.90625 11.875H10.0938C10.4203 11.875 10.6875 11.6078 10.6875 11.2812V10.0938C10.6875 9.76719 10.4203 9.5 10.0938 9.5H8.90625C8.57969 9.5 8.3125 9.76719 8.3125 10.0938ZM13.6562 9.5C13.3297 9.5 13.0625 9.76719 13.0625 10.0938V11.2812C13.0625 11.6078 13.3297 11.875 13.6562 11.875H14.8438C15.1703 11.875 15.4375 11.6078 15.4375 11.2812V10.0938C15.4375 9.76719 15.1703 9.5 14.8438 9.5H13.6562ZM3.5625 14.8438V16.0312C3.5625 16.3578 3.82969 16.625 4.15625 16.625H5.34375C5.67031 16.625 5.9375 16.3578 5.9375 16.0312V14.8438C5.9375 14.5172 5.67031 14.25 5.34375 14.25H4.15625C3.82969 14.25 3.5625 14.5172 3.5625 14.8438ZM8.90625 14.25C8.57969 14.25 8.3125 14.5172 8.3125 14.8438V16.0312C8.3125 16.3578 8.57969 16.625 8.90625 16.625H10.0938C10.4203 16.625 10.6875 16.3578 10.6875 16.0312V14.8438C10.6875 14.5172 10.4203 14.25 10.0938 14.25H8.90625ZM13.0625 14.8438V16.0312C13.0625 16.3578 13.3297 16.625 13.6562 16.625H14.8438C15.1703 16.625 15.4375 16.3578 15.4375 16.0312V14.8438C15.4375 14.5172 15.1703 14.25 14.8438 14.25H13.6562C13.3297 14.25 13.0625 14.5172 13.0625 14.8438Z" fill="#E5BC3B"/>
</svg>
