<svg width="20" height="16" viewBox="0 0 20 16" fill="none" xmlns="http://www.w3.org/2000/svg">
<path d="M0 2.21423C0 1.10966 0.89543 0.214233 2 0.214233H11.5181C12.0704 0.214233 12.5181 0.661949 12.5181 1.21423V6.19285C12.5181 7.29742 13.4135 8.19285 14.5181 8.19285H18.8775C19.4298 8.19285 19.8775 8.64057 19.8775 9.19285V13.4148C19.8775 14.5194 18.982 15.4148 17.8775 15.4148H2C0.895433 15.4148 0 14.5194 0 13.4148V2.21423Z" fill="#E5BC3B"/>
<g clip-path="url(#clip0_130_409)">
<path d="M18.9134 6.4034L14.5674 2.05737M18.9134 2.05737L14.5674 6.4034" stroke="#E5BC3B" stroke-linecap="round"/>
</g>
<path d="M4.55095 11.7609V11.0865L5.79885 10.2078V8.30876L2.48486 9.64436V8.78451L5.79885 6.44698V4.50057C5.79885 4.32693 5.86082 4.17814 5.98476 4.0542C6.1087 3.93026 6.25749 3.86829 6.43113 3.86829C6.60476 3.86829 6.75355 3.93026 6.87749 4.0542C7.00143 4.17814 7.0634 4.32693 7.0634 4.50057V6.44698L10.3774 8.78363V9.64392L7.0634 8.30832V10.2069L8.30297 11.0861V11.7609L6.43113 11.1874L4.55095 11.7609Z" fill="#FBFBFB"/>
<defs>
<clipPath id="clip0_130_409">
<rect width="6.51897" height="6.51904" fill="white" transform="translate(13.481 0.970886)"/>
</clipPath>
</defs>
</svg>
