<svg width="14" height="21" viewBox="0 0 14 21" fill="none" xmlns="http://www.w3.org/2000/svg">
<path d="M12.03 4.2C13.11 4.2 14 5.124 14 6.3V17.85C14 19.0365 13.11 19.95 12.03 19.95C12.03 20.559 11.56 21 11 21C10.5 21 10 20.559 10 19.95H4C4 20.559 3.5 21 3 21C2.44 21 1.97 20.559 1.97 19.95C0.89 19.95 0 19.0365 0 17.85V6.3C0 5.124 0.89 4.2 1.97 4.2H4V1.05C4 0.441 4.46 0 5 0H9C9.54 0 10 0.441 10 1.05V4.2H12.03ZM8.5 4.2V1.575H5.5V4.2H8.5ZM3 7.35V16.8H4.5V7.35H3ZM9.5 7.35V16.8H11V7.35H9.5ZM6.25 7.35V16.8H7.75V7.35H6.25Z" fill="#E5BC3B"/>
</svg>
