<svg width="20" height="18" viewBox="0 0 20 18" fill="none" xmlns="http://www.w3.org/2000/svg">
<path d="M0 2C0 0.89543 0.895431 0 2 0H18C19.1046 0 20 0.895431 20 2V16C20 17.1046 19.1046 18 18 18H2C0.895431 18 0 17.1046 0 16V2Z" fill="#E5BC3B"/>
<path d="M15.4165 4H2.10693C1.96886 4 1.85693 4.11193 1.85693 4.25C1.85693 4.38807 1.96886 4.5 2.10693 4.5H15.4165C15.5545 4.5 15.6665 4.38807 15.6665 4.25C15.6665 4.11193 15.5545 4 15.4165 4Z" stroke="white"/>
<path d="M15.4165 7H2.10693C1.96886 7 1.85693 7.11193 1.85693 7.25C1.85693 7.38807 1.96886 7.5 2.10693 7.5H6.85693H15.4165C15.5545 7.5 15.6665 7.38807 15.6665 7.25C15.6665 7.11193 15.5545 7 15.4165 7Z" stroke="white"/>
<path d="M9.70217 10H2.10693C1.96886 10 1.85693 10.1119 1.85693 10.25C1.85693 10.3881 1.96886 10.5 2.10693 10.5H9.70217C9.84024 10.5 9.95217 10.3881 9.95217 10.25C9.95217 10.1119 9.84024 10 9.70217 10Z" stroke="white"/>
<ellipse cx="15.0424" cy="12.795" rx="3.70306" ry="3.70354" fill="white"/>
<path d="M17.5522 12.0465H14.1385C13.989 12.0465 13.841 12.0773 13.7029 12.1371C13.5648 12.197 13.4393 12.2847 13.3336 12.3954C13.2279 12.506 13.144 12.6373 13.0868 12.7819C13.0297 12.9265 13.0002 13.0814 13.0003 13.2378V13.8332" stroke="#E5BC3B" stroke-linecap="round" stroke-linejoin="round"/>
<path d="M16.6433 13.0429L17.5522 12.0465L16.6433 11" stroke="#E5BC3B" stroke-linecap="round" stroke-linejoin="round"/>
</svg>
