<svg width="20" height="20" viewBox="0 0 20 20" fill="none" xmlns="http://www.w3.org/2000/svg">
<path d="M14.908 1.40153L11.2465 8.2354C11.1886 8.34289 11.2258 8.48069 11.3306 8.54133C11.4339 8.60196 11.5662 8.562 11.6241 8.45451L15.287 1.62064C15.3449 1.51315 15.3077 1.37534 15.2029 1.31471C15.0982 1.25407 14.9659 1.29404 14.908 1.40153ZM17.536 2.43232L13.8731 9.2662C13.8152 9.37369 13.8524 9.51149 13.9572 9.57213C14.0605 9.63276 14.1928 9.5928 14.2507 9.48531L17.9136 2.65144C17.9715 2.54395 17.9343 2.40614 17.8296 2.34551C17.7262 2.28487 17.5939 2.32346 17.536 2.43232Z" fill="#E5BC3B"/>
<path d="M1.84512 10.5161C1.84512 10.5161 1.2622 9.28272 2.53967 8.90099C2.8084 8.40764 3.72757 6.16551 5.90355 7.71309C6.12818 7.15221 8.12363 4.70751 10.8591 7.28726C11.6446 6.81596 13.6621 6.32812 13.9763 8.3222C14.5592 7.84814 15.5018 7.87019 15.4564 9.17109C15.8601 9.32819 16.7118 9.46324 16.8469 10.5161C13.1922 12.4674 4.78318 12.9387 4.78318 12.9387L2.58515 11.5937L1.84512 10.5161Z" fill="#E5BC3B"/>
<path d="M17.0459 11.0161C16.7107 15.4666 13.3258 18.8959 9.28027 18.896C5.23467 18.896 1.84982 15.4666 1.51465 11.0161H17.0459Z" fill="#E5BC3B" stroke="white"/>
<path d="M9.28013 18.1919C6.38066 18.1919 3.77748 16.8097 1.98047 14.6158C3.38197 17.4629 6.12434 19.3978 9.28013 19.3978C12.4359 19.3978 15.1769 17.4629 16.5798 14.6158C14.7828 16.8097 12.1796 18.1919 9.28013 18.1919Z" fill="#E5BC3B"/>
<path d="M6.83269 7.67863C6.83269 7.67863 6.83407 7.67588 6.83683 7.66899C6.83958 7.6621 6.84372 7.65383 6.84923 7.64143C6.85474 7.6304 6.86163 7.61524 6.87128 7.60008C6.87955 7.58355 6.89057 7.56563 6.90298 7.54634C6.92778 7.50637 6.96085 7.46228 7.00082 7.41267C7.01046 7.40026 7.02149 7.38786 7.03251 7.37546C7.04354 7.36305 7.05594 7.35065 7.06697 7.33687C7.09177 7.31069 7.11795 7.28588 7.14689 7.2597C7.17583 7.23352 7.20615 7.20733 7.23922 7.18115C7.25576 7.16737 7.2723 7.15634 7.29021 7.14256L7.34396 7.10536C7.38117 7.08055 7.41975 7.05574 7.45972 7.03369C7.48039 7.02267 7.50106 7.01027 7.52173 7.00062C7.5424 6.9896 7.56445 6.97857 7.5865 6.96893C7.60855 6.9579 7.6306 6.94825 7.65403 6.93999C7.67745 6.93034 7.6995 6.92069 7.72293 6.91242C7.76978 6.89589 7.81802 6.87797 7.86763 6.86557C7.89243 6.85868 7.91724 6.85179 7.94204 6.84628C7.96685 6.84076 7.99303 6.83525 8.01922 6.82974C8.0702 6.81871 8.12257 6.8132 8.17494 6.80631C8.2273 6.8008 8.27967 6.79804 8.33342 6.79529H8.41197L8.45193 6.79667H8.47122L8.49052 6.79804C8.59525 6.80493 8.69723 6.82009 8.79369 6.8449C8.89016 6.86833 8.98111 6.90002 9.06517 6.93723C9.08584 6.94688 9.10652 6.95652 9.12581 6.96617L9.18369 6.99511C9.2209 7.01716 9.25535 7.03783 9.28842 7.05988C9.30496 7.0709 9.32012 7.08193 9.33528 7.09295C9.35044 7.10398 9.36559 7.115 9.37937 7.12603C9.39316 7.13705 9.40694 7.14808 9.41934 7.1591C9.42623 7.16461 9.43174 7.17012 9.43863 7.17564C9.44414 7.18115 9.45104 7.18666 9.45655 7.19217C9.47997 7.2156 9.50065 7.23489 9.51994 7.25556C9.52959 7.26521 9.53785 7.27486 9.5475 7.2845C9.55577 7.29277 9.56404 7.3038 9.57093 7.31344C9.58609 7.33136 9.59849 7.3479 9.60814 7.36305C9.61916 7.37821 9.62743 7.39062 9.63432 7.40164C9.64121 7.41129 9.64672 7.42093 9.64948 7.42645C9.65223 7.43196 9.65499 7.43471 9.65499 7.43471L9.6357 7.47054C9.6357 7.47054 9.62467 7.46641 9.60538 7.45676C9.58609 7.44712 9.55715 7.43471 9.52132 7.41818C9.5034 7.40853 9.48273 7.40164 9.46068 7.39199C9.43863 7.38373 9.41383 7.3727 9.38764 7.36305C9.36146 7.35203 9.3339 7.34376 9.30358 7.33412C9.28842 7.3286 9.27326 7.32447 9.2581 7.31896C9.24295 7.31344 9.22641 7.30793 9.20987 7.3038C9.1768 7.29415 9.14235 7.2845 9.10652 7.27486C9.07069 7.26659 9.03348 7.25832 8.99489 7.25005C8.91772 7.23489 8.83641 7.22249 8.75235 7.21284C8.66691 7.2032 8.58009 7.20044 8.49052 7.19906C8.46847 7.19769 8.44504 7.20044 8.42299 7.20044C8.40094 7.20182 8.37751 7.20182 8.35547 7.2032C8.33342 7.20458 8.30999 7.20733 8.28794 7.20871C8.26589 7.21009 8.24246 7.21147 8.22041 7.2156C8.17494 7.22111 8.12946 7.22525 8.08536 7.23352C8.06331 7.23765 8.04127 7.24041 8.01784 7.24454C7.99579 7.24867 7.97374 7.25281 7.95169 7.25832C7.90759 7.26659 7.86487 7.27761 7.82215 7.28864C7.8001 7.29415 7.77943 7.29966 7.75876 7.30655C7.73809 7.31207 7.71742 7.31758 7.69675 7.32447C7.6554 7.33687 7.61544 7.34927 7.57685 7.36305C7.53827 7.37546 7.49968 7.39062 7.46247 7.4044C7.42527 7.41818 7.39081 7.43334 7.35636 7.44712C7.32191 7.46228 7.28884 7.47606 7.25852 7.49122C7.1965 7.52016 7.14 7.54909 7.09039 7.5739C7.04078 7.60008 6.99806 7.62351 6.96361 7.64418C6.92916 7.66485 6.90297 7.68139 6.88506 7.69241C6.87679 7.69793 6.8699 7.70206 6.86439 7.7062C6.86025 7.70895 6.8575 7.71033 6.8575 7.71033L6.83269 7.67863ZM3.15186 9.40812V9.39847C3.15186 9.39158 3.15323 9.38193 3.15461 9.36953C3.15599 9.35713 3.15875 9.34197 3.1615 9.32268C3.16426 9.30476 3.16977 9.28409 3.17528 9.26204C3.18631 9.21657 3.20284 9.1642 3.22627 9.10494C3.23178 9.08978 3.23867 9.07462 3.24556 9.05946C3.25246 9.04431 3.25935 9.02777 3.26624 9.01261C3.28139 8.98091 3.29931 8.94784 3.31722 8.91339C3.33514 8.87894 3.35719 8.84586 3.38062 8.81003C3.39164 8.79212 3.40404 8.77558 3.41645 8.75767C3.42885 8.73975 3.44125 8.72184 3.45503 8.7053C3.48259 8.67085 3.51153 8.63502 3.54323 8.60194C3.55839 8.58541 3.57492 8.56749 3.59146 8.55096L3.64245 8.49997C3.66037 8.48343 3.67828 8.46689 3.69757 8.45036C3.71687 8.4352 3.73478 8.41728 3.75545 8.40212C3.79542 8.37181 3.83538 8.34011 3.8781 8.31255C3.89877 8.29739 3.92082 8.28499 3.94287 8.26983C3.96492 8.25605 3.98835 8.24364 4.0104 8.23124C4.05587 8.20506 4.10411 8.18301 4.15096 8.15958C4.19919 8.13753 4.2488 8.11824 4.29704 8.10032C4.32184 8.09206 4.34665 8.08379 4.37283 8.07552L4.41004 8.0645L4.42933 8.05898L4.44862 8.05485C4.54922 8.02866 4.6512 8.01075 4.75042 8.00386C4.84964 7.99559 4.94611 7.99835 5.03706 8.00662C5.05911 8.00937 5.08254 8.01213 5.10321 8.01488C5.12526 8.01764 5.14593 8.0204 5.16798 8.02453C5.20932 8.0328 5.24928 8.04245 5.28787 8.05347C5.30716 8.0576 5.32508 8.06449 5.34299 8.07001C5.36091 8.07552 5.37882 8.08103 5.39536 8.08792C5.4119 8.09481 5.42843 8.10032 5.44359 8.10584C5.45186 8.10859 5.45875 8.11135 5.46702 8.11548C5.47391 8.11962 5.48218 8.12237 5.48907 8.12651C5.51801 8.14029 5.54557 8.15269 5.569 8.16647C5.5814 8.17336 5.59243 8.17888 5.60345 8.18577C5.61447 8.19128 5.62412 8.19955 5.63515 8.20506C5.65444 8.21746 5.67235 8.22986 5.68614 8.24089C5.70129 8.25191 5.7137 8.26156 5.72334 8.26845C5.73299 8.27534 5.74126 8.28223 5.74539 8.28637C5.7509 8.2905 5.75228 8.29326 5.75228 8.29326L5.74539 8.3346L5.71232 8.33046C5.69027 8.32771 5.65995 8.32495 5.61999 8.31944C5.60069 8.31668 5.57864 8.3153 5.55384 8.31393C5.53041 8.31255 5.50423 8.31117 5.47529 8.30979C5.44773 8.30704 5.41741 8.30841 5.38709 8.30841H5.28925C5.2548 8.30979 5.21897 8.31117 5.18314 8.31393C5.14593 8.31668 5.10872 8.32082 5.07014 8.32495C4.99296 8.3346 4.91166 8.34838 4.82759 8.36629C4.74353 8.38421 4.65947 8.40764 4.57403 8.43658C4.55198 8.44347 4.53131 8.45173 4.51064 8.45862C4.48997 8.46689 4.46792 8.47378 4.44725 8.48205C4.42657 8.49032 4.4059 8.49997 4.38523 8.50823C4.36456 8.51788 4.34251 8.52615 4.32322 8.5358C4.28188 8.55509 4.24053 8.573 4.20057 8.59505C4.1799 8.60608 4.16061 8.61572 4.13994 8.62675C4.12064 8.63777 4.10135 8.6488 4.08068 8.65982C4.04071 8.68187 4.00351 8.70668 3.9663 8.72873C3.947 8.73975 3.92909 8.75353 3.91117 8.76456C3.89326 8.77696 3.87534 8.78798 3.85743 8.80176C3.82298 8.82657 3.78853 8.85138 3.75545 8.87618C3.72238 8.90099 3.69068 8.92579 3.66037 8.9506C3.63005 8.9754 3.60111 9.00021 3.57217 9.02501C3.54461 9.04982 3.51705 9.07325 3.49362 9.09667C3.44401 9.14353 3.39853 9.18763 3.35994 9.22759C3.32136 9.26755 3.28829 9.30338 3.2621 9.3337C3.23592 9.36402 3.21525 9.38745 3.20284 9.40536C3.19595 9.41363 3.19182 9.42052 3.18769 9.42465C3.18493 9.42879 3.18217 9.43154 3.18217 9.43154L3.15186 9.40812ZM11.5526 7.6745C11.5526 7.6745 11.5554 7.67312 11.5595 7.66899C11.5636 7.66623 11.5705 7.66072 11.5802 7.65521C11.5884 7.64969 11.5995 7.64143 11.6132 7.63454C11.6256 7.62627 11.6408 7.618 11.6587 7.60973C11.6932 7.59182 11.7345 7.57528 11.7841 7.55874C11.7965 7.55461 11.8089 7.55047 11.8227 7.54772C11.8351 7.54358 11.8489 7.54083 11.8627 7.53669C11.8902 7.5298 11.9192 7.52429 11.9509 7.51878C12.0129 7.50775 12.079 7.50224 12.1493 7.50362C12.1851 7.50362 12.221 7.505 12.2582 7.50913C12.2761 7.51051 12.2954 7.51189 12.3147 7.51602C12.334 7.51878 12.3519 7.52153 12.3712 7.52429C12.4098 7.53118 12.447 7.54083 12.4869 7.55047C12.5062 7.55599 12.5255 7.5615 12.5448 7.56839C12.5641 7.5739 12.5834 7.58217 12.6027 7.58906C12.622 7.59595 12.6413 7.60422 12.6606 7.61111C12.6799 7.61938 12.6978 7.62765 12.7171 7.63729C12.7557 7.65383 12.7915 7.67588 12.8273 7.69655C12.8631 7.7186 12.899 7.74203 12.9321 7.76683C12.9486 7.77923 12.9651 7.79301 12.9817 7.80542C12.9982 7.8192 13.0147 7.8316 13.0299 7.84538C13.0919 7.9005 13.1484 7.96114 13.1966 8.02591C13.2449 8.0893 13.2848 8.15545 13.3179 8.2216C13.3262 8.23813 13.3331 8.25467 13.34 8.27121C13.3469 8.28774 13.3537 8.3029 13.3593 8.31944C13.3703 8.35251 13.3813 8.38421 13.3896 8.41453C13.3937 8.42968 13.3978 8.44484 13.4006 8.46C13.4034 8.47516 13.4075 8.48894 13.4089 8.5041C13.4116 8.51788 13.413 8.53304 13.4158 8.54544C13.4171 8.55233 13.4185 8.55922 13.4185 8.56474C13.4185 8.57163 13.4199 8.57852 13.4199 8.58541C13.4213 8.61159 13.424 8.63502 13.4226 8.65845C13.4226 8.68049 13.4226 8.70117 13.4213 8.72046C13.4199 8.73975 13.4185 8.75629 13.4158 8.77145C13.4144 8.78661 13.4116 8.79901 13.4102 8.81003C13.4089 8.81968 13.4061 8.82795 13.4047 8.83346C13.4034 8.83897 13.4034 8.84173 13.4034 8.84173L13.3661 8.85964C13.3661 8.85964 13.362 8.85138 13.3537 8.83759C13.3455 8.82244 13.3344 8.80176 13.3193 8.7742C13.3124 8.76042 13.3028 8.74664 13.2931 8.7301C13.2835 8.71495 13.2724 8.69703 13.2614 8.67912C13.2504 8.6612 13.2366 8.64191 13.2228 8.62262C13.209 8.60332 13.1966 8.58127 13.1801 8.5606C13.1636 8.53993 13.147 8.51788 13.1305 8.49583C13.1126 8.47378 13.0933 8.45173 13.074 8.42968C13.034 8.38559 12.9899 8.34011 12.9417 8.29601C12.8935 8.25191 12.8425 8.20781 12.7874 8.16647C12.7598 8.1458 12.7309 8.12651 12.7033 8.10721C12.6744 8.0893 12.6454 8.07001 12.6151 8.05209C12.5848 8.03418 12.5558 8.01626 12.5241 7.99973L12.4787 7.97492C12.4635 7.96803 12.447 7.95976 12.4318 7.95287C12.4015 7.93771 12.3698 7.92531 12.3381 7.91153C12.3064 7.89913 12.2761 7.88672 12.2458 7.87432C12.2155 7.8633 12.1851 7.85227 12.1548 7.84262C12.1245 7.8316 12.0956 7.82333 12.0666 7.81506C12.0087 7.79853 11.9536 7.78337 11.9026 7.77234C11.8516 7.76132 11.8034 7.75167 11.7621 7.74478C11.7193 7.73789 11.6821 7.73238 11.6518 7.72824C11.6215 7.72411 11.5967 7.72135 11.5815 7.72135C11.5733 7.72135 11.5678 7.71998 11.5636 7.71998H11.5567L11.5526 7.6745ZM13.9146 8.83897C13.9146 8.83897 13.916 8.83759 13.9188 8.83346C13.9215 8.8307 13.9256 8.82519 13.9312 8.8183C13.9367 8.81141 13.9436 8.80452 13.9518 8.79625C13.9601 8.78798 13.9697 8.77972 13.9808 8.77007C14.0028 8.75078 14.0304 8.73148 14.0621 8.71357C14.0938 8.69565 14.131 8.67636 14.1723 8.66258C14.2536 8.63364 14.3515 8.6171 14.4548 8.62675C14.481 8.62813 14.5072 8.63226 14.5334 8.63777C14.5458 8.64053 14.5596 8.64329 14.5733 8.64742C14.5857 8.65018 14.5995 8.65431 14.6119 8.65845C14.6381 8.66671 14.6643 8.67636 14.6891 8.68738C14.7153 8.69841 14.7401 8.71219 14.7635 8.72597C14.7883 8.73975 14.8117 8.75629 14.8338 8.77283C14.8448 8.78109 14.8558 8.79074 14.8669 8.79901C14.8779 8.80866 14.8889 8.81692 14.8986 8.82657C14.9192 8.84586 14.9385 8.86653 14.9564 8.88721C14.9744 8.90925 14.9909 8.92993 15.0061 8.95335C15.0364 8.99883 15.0598 9.04706 15.0763 9.09392C15.0846 9.11734 15.0915 9.14077 15.097 9.1642C15.1025 9.18763 15.1053 9.21105 15.108 9.2331C15.1094 9.24413 15.1108 9.25515 15.1108 9.26618C15.1108 9.2772 15.1122 9.28685 15.1108 9.29787V9.34197C15.1108 9.34748 15.1094 9.35162 15.1094 9.35713C15.1067 9.37642 15.1053 9.39296 15.1011 9.4095C15.0984 9.42603 15.0943 9.43981 15.0901 9.45497C15.086 9.46875 15.0818 9.48116 15.0777 9.49218C15.0736 9.5032 15.0694 9.51147 15.0667 9.51974C15.0639 9.52663 15.0598 9.53352 15.0584 9.53628C15.057 9.54041 15.0557 9.54179 15.0557 9.54179L15.0185 9.55971C15.0185 9.55971 15.0157 9.55557 15.0102 9.54593C15.0047 9.53766 14.9978 9.52525 14.9881 9.50872C14.9785 9.49218 14.9661 9.47427 14.9523 9.45222C14.9454 9.44119 14.9371 9.43017 14.9289 9.41914C14.9206 9.40812 14.9123 9.39434 14.9013 9.38193C14.8917 9.36953 14.8806 9.35713 14.871 9.34335C14.86 9.33095 14.8476 9.31716 14.8352 9.30476C14.8104 9.27858 14.7828 9.2524 14.7539 9.22621C14.7249 9.20003 14.6932 9.17385 14.6602 9.15042C14.6436 9.13802 14.6257 9.12699 14.6092 9.11597C14.5913 9.10494 14.5733 9.09392 14.5554 9.08427C14.5375 9.07325 14.5196 9.0636 14.5003 9.05395C14.4824 9.04431 14.4631 9.03466 14.4438 9.02639C14.4259 9.01674 14.4066 9.00985 14.3873 9.00159C14.368 8.9947 14.3501 8.98643 14.3308 8.97954C14.3115 8.97265 14.2936 8.96713 14.2757 8.96024C14.2578 8.95335 14.2398 8.94784 14.2219 8.94371C14.1875 8.93406 14.153 8.92441 14.1227 8.91752C14.091 8.91063 14.0635 8.90512 14.0373 8.89961C14.0111 8.89547 13.989 8.89134 13.9711 8.88858C13.9532 8.88583 13.938 8.88445 13.9284 8.88307C13.9188 8.88169 13.9132 8.88169 13.9132 8.88169L13.9146 8.83897Z" fill="white"/>
<path d="M5.27246 9.52111C5.27246 9.60006 5.30382 9.67577 5.35964 9.73159C5.41547 9.78742 5.49118 9.81878 5.57013 9.81878C5.64907 9.81878 5.72478 9.78742 5.78061 9.73159C5.83643 9.67577 5.86779 9.60006 5.86779 9.52111C5.86779 9.44217 5.83643 9.36646 5.78061 9.31063C5.72478 9.25481 5.64907 9.22345 5.57013 9.22345C5.49118 9.22345 5.41547 9.25481 5.35964 9.31063C5.30382 9.36646 5.27246 9.44217 5.27246 9.52111Z" fill="#E5BC3B"/>
<path d="M6.05273 8.86651C6.05273 8.94546 6.0841 9.02117 6.13992 9.07699C6.19574 9.13282 6.27145 9.16418 6.3504 9.16418C6.42934 9.16418 6.50506 9.13282 6.56088 9.07699C6.6167 9.02117 6.64806 8.94546 6.64806 8.86651C6.64806 8.78757 6.6167 8.71185 6.56088 8.65603C6.50506 8.60021 6.42934 8.56885 6.3504 8.56885C6.27145 8.56885 6.19574 8.60021 6.13992 8.65603C6.0841 8.71185 6.05273 8.78757 6.05273 8.86651Z" fill="#E5BC3B"/>
<path d="M9.51123 8.92718C9.51123 9.00613 9.54259 9.08184 9.59841 9.13766C9.65424 9.19348 9.72995 9.22484 9.80889 9.22484C9.88784 9.22484 9.96355 9.19348 10.0194 9.13766C10.0752 9.08184 10.1066 9.00613 10.1066 8.92718C10.1066 8.84824 10.0752 8.77252 10.0194 8.7167C9.96355 8.66088 9.88784 8.62952 9.80889 8.62952C9.72995 8.62952 9.65424 8.66088 9.59841 8.7167C9.54259 8.77252 9.51123 8.84824 9.51123 8.92718Z" fill="#E5BC3B"/>
<path d="M6.92188 18.1754H12.029V19.6183H6.92188V18.1754Z" fill="#E5BC3B"/>
<path d="M5.81006 1.97755C5.85002 1.97755 5.88861 1.98582 5.92719 1.99546C5.94649 2.00098 5.96578 2.00649 5.98507 2.01338C6.00437 2.02027 6.02228 2.02716 6.04158 2.03543C6.06087 2.0437 6.07878 2.05197 6.0967 2.06161C6.11461 2.07126 6.13253 2.08091 6.15044 2.09193C6.16836 2.10295 6.1849 2.11398 6.20143 2.12638C6.21797 2.13878 6.23451 2.15119 6.25104 2.16497C6.28274 2.19115 6.31443 2.22009 6.34337 2.25041C6.35715 2.26557 6.37231 2.28073 6.38472 2.29726C6.39712 2.3138 6.4109 2.33034 6.4233 2.34687L6.45913 2.39924C6.47016 2.41716 6.48118 2.43507 6.49221 2.45436C6.50323 2.47228 6.5115 2.49157 6.52252 2.51086L6.5363 2.5398L6.54871 2.56874C6.55698 2.58804 6.56662 2.60733 6.57213 2.628L6.59281 2.68864C6.5997 2.70931 6.60383 2.7286 6.61072 2.74927C6.61623 2.76994 6.62174 2.79061 6.62588 2.80991L6.63828 2.87192C6.64242 2.89259 6.64379 2.91326 6.64655 2.93393C6.65344 2.97528 6.65482 3.01662 6.65757 3.05796C6.65895 3.07863 6.65895 3.0993 6.65895 3.11997V3.18199C6.65757 3.22333 6.65482 3.26329 6.65344 3.30464C6.64931 3.3446 6.64517 3.38456 6.63966 3.42453C6.63277 3.46449 6.62726 3.50308 6.61899 3.54304L6.61623 3.55682L6.61348 3.56647L6.5556 3.74011L6.52804 3.82555L6.50185 3.90961C6.49358 3.93717 6.48532 3.96611 6.47705 3.99367C6.46878 4.02123 6.46051 4.05017 6.45362 4.07774C6.43846 4.13424 6.42606 4.18936 6.41503 4.24586C6.40952 4.27342 6.40401 4.30236 6.39987 4.3313C6.39574 4.36024 6.39161 4.3878 6.38885 4.41674C6.38747 4.43052 6.38609 4.44568 6.38472 4.45946C6.38334 4.47462 6.38334 4.4884 6.38196 4.50218C6.38058 4.51734 6.38058 4.53112 6.38058 4.54628V4.61243L6.38196 4.63448L6.38334 4.65653L6.38472 4.67858L6.38885 4.72405C6.39023 4.73921 6.39161 4.75437 6.39436 4.76953C6.3985 4.79985 6.40401 4.83016 6.4109 4.86186L6.42192 4.90871C6.42606 4.92387 6.43019 4.94041 6.43433 4.95695C6.42192 4.94592 6.40952 4.93628 6.39712 4.92525C6.38472 4.91423 6.37369 4.90182 6.36129 4.88942C6.34889 4.87702 6.33924 4.86462 6.32821 4.85221C6.31719 4.83981 6.30754 4.82603 6.2979 4.81225C6.2786 4.78469 6.25931 4.75575 6.24277 4.72543C6.23451 4.71027 6.22624 4.69511 6.21935 4.67995L6.20832 4.65653L6.19868 4.6331C6.19179 4.61656 6.18489 4.6014 6.17938 4.58487L6.16285 4.53526C6.15733 4.51872 6.1532 4.50218 6.14907 4.48565C6.14493 4.46911 6.1408 4.45257 6.13666 4.43466C6.12977 4.40021 6.12426 4.36713 6.11875 4.33268C6.11461 4.29823 6.11048 4.26378 6.1091 4.22932C6.10497 4.16042 6.10634 4.09152 6.11048 4.02399C6.11324 3.98954 6.11599 3.95647 6.12013 3.92339C6.12426 3.89032 6.12839 3.85724 6.13391 3.82417C6.13942 3.7911 6.14493 3.75802 6.15182 3.72633C6.15871 3.69463 6.1656 3.66156 6.17387 3.62986C6.18076 3.59817 6.19041 3.56647 6.19868 3.53615C6.20694 3.50446 6.21659 3.47414 6.22486 3.44382L6.21935 3.46863C6.22348 3.43417 6.22899 3.4011 6.23451 3.36665L6.24691 3.26605L6.25518 3.16545C6.25656 3.13238 6.25931 3.0993 6.25931 3.06623C6.25931 3.03316 6.26069 3.00008 6.25931 2.96701L6.25793 2.9174L6.25518 2.86916C6.25518 2.8609 6.2538 2.85263 6.2538 2.84436L6.25104 2.81955C6.24966 2.80302 6.24829 2.78648 6.24553 2.77132L6.23864 2.72309C6.23588 2.70655 6.23313 2.69139 6.22899 2.67486L6.22486 2.65143L6.21935 2.628C6.21521 2.61284 6.21246 2.59631 6.20694 2.58115C6.20281 2.56599 6.19868 2.54945 6.19316 2.53429L6.17663 2.48744L6.15871 2.44196L6.13804 2.39648C6.13115 2.38133 6.12288 2.36617 6.11599 2.35101C6.10772 2.33585 6.09945 2.32207 6.09119 2.30691C6.08292 2.29175 6.07327 2.27797 6.065 2.26281C6.05536 2.24903 6.04571 2.23387 6.03606 2.22009C6.01677 2.19115 5.99472 2.16359 5.97129 2.13603C5.96027 2.12225 5.94787 2.10847 5.93546 2.09469C5.92306 2.08091 5.91066 2.06712 5.89688 2.05472C5.86794 2.02716 5.84038 2.00236 5.81006 1.97755ZM9.57634 0.383118C9.54878 0.406545 9.52397 0.429972 9.49917 0.453399C9.48676 0.465802 9.47436 0.476827 9.46333 0.489229C9.45231 0.501632 9.43991 0.512657 9.42888 0.526437L9.41235 0.544352C9.40683 0.551243 9.40132 0.556755 9.39581 0.563645C9.38478 0.576048 9.37514 0.588451 9.36411 0.600853C9.35447 0.613256 9.34482 0.627037 9.3338 0.63944L9.30623 0.678026L9.28005 0.716612L9.25525 0.756576L9.2332 0.79654C9.22631 0.810321 9.21942 0.824102 9.21253 0.836504C9.20012 0.862688 9.18772 0.890249 9.17807 0.917811L9.1698 0.938482L9.16291 0.959153C9.15878 0.972934 9.15327 0.986714 9.15051 1.0005C9.14776 1.01428 9.14224 1.02806 9.13949 1.04184L9.13122 1.08318C9.12846 1.09696 9.12708 1.11074 9.12571 1.12452C9.12295 1.1383 9.12295 1.15208 9.12157 1.16586C9.11882 1.19343 9.11882 1.22099 9.11744 1.24855C9.11744 1.26233 9.11882 1.27611 9.11882 1.28989V1.31056C9.11882 1.31745 9.12019 1.32434 9.12157 1.33123L9.12571 1.37258L9.1326 1.4153C9.13535 1.44286 9.14362 1.4718 9.14776 1.49936C9.15051 1.51314 9.15465 1.52692 9.1574 1.54208C9.16154 1.55586 9.16429 1.56964 9.16843 1.5848C9.1767 1.61374 9.18634 1.6413 9.19461 1.66886L9.18772 1.65095C9.2015 1.68402 9.21666 1.71709 9.23182 1.75155C9.2456 1.786 9.26076 1.82045 9.27454 1.8549C9.30348 1.92518 9.32966 1.99822 9.35309 2.07264C9.36549 2.10985 9.37514 2.14843 9.38616 2.18564C9.39581 2.22423 9.40546 2.26281 9.41235 2.30278C9.41648 2.32207 9.41924 2.34274 9.42337 2.36203C9.42613 2.3827 9.42888 2.402 9.43164 2.42267C9.43715 2.46263 9.43991 2.50397 9.44129 2.54394C9.44266 2.58528 9.44266 2.62524 9.44129 2.66659C9.43991 2.70793 9.43577 2.74789 9.43026 2.78924C9.42475 2.8292 9.41648 2.86916 9.40683 2.90913C9.39719 2.94909 9.38616 2.98768 9.37238 3.02489C9.36549 3.04418 9.3586 3.06209 9.35033 3.08139L9.32553 3.13651C9.30761 3.17234 9.2897 3.20679 9.26903 3.23987C9.25938 3.2564 9.24836 3.27294 9.23733 3.28948L9.22079 3.3129L9.20563 3.33495C9.18221 3.36527 9.15602 3.39559 9.12984 3.42315C9.13398 3.38456 9.14224 3.34736 9.14638 3.31015L9.15051 3.28259L9.15327 3.25503C9.15465 3.23711 9.15878 3.2192 9.15878 3.1999C9.16016 3.18199 9.16291 3.16407 9.16291 3.14616L9.16567 3.09241L9.16705 3.04005V2.98768C9.16567 2.95323 9.16429 2.91877 9.16154 2.88432C9.16154 2.86779 9.15878 2.84987 9.1574 2.83333C9.15602 2.8168 9.15327 2.80026 9.15051 2.78372C9.14638 2.75065 9.13949 2.71758 9.13398 2.6845C9.12708 2.65143 9.12019 2.61973 9.11193 2.58804C9.10366 2.55634 9.09401 2.52327 9.08436 2.49157C9.07472 2.45988 9.06369 2.42818 9.05267 2.39648L9.03613 2.34825L9.01822 2.30002L8.99892 2.25179L8.97963 2.20355L8.93829 2.10709L8.89557 2.00925L8.85147 1.91002C8.83631 1.87695 8.82253 1.8425 8.80737 1.80805L8.80324 1.79702L8.80186 1.79013C8.79083 1.75292 8.78119 1.71709 8.77154 1.67989C8.76741 1.66059 8.76327 1.64268 8.76052 1.62338C8.75638 1.60409 8.75225 1.58618 8.75087 1.56688C8.74536 1.5283 8.73985 1.48971 8.73847 1.44975C8.73709 1.43045 8.73571 1.40978 8.73571 1.39049L8.73709 1.33123C8.73709 1.32159 8.73709 1.31194 8.73847 1.30092L8.74122 1.2706C8.74398 1.2513 8.74536 1.23063 8.74811 1.21134C8.755 1.17138 8.76189 1.13141 8.77292 1.09283C8.78257 1.05424 8.79635 1.01565 8.81013 0.978446C8.8184 0.960531 8.82666 0.941238 8.83493 0.923323C8.8432 0.905408 8.85285 0.887493 8.86249 0.869578C8.87214 0.851663 8.88179 0.835126 8.89281 0.818589L8.90935 0.793784C8.91486 0.785515 8.92037 0.777247 8.92726 0.770357C8.94931 0.738661 8.9755 0.708343 9.00168 0.679404C9.01546 0.665623 9.02786 0.651842 9.04164 0.638061C9.05542 0.625659 9.06921 0.611878 9.08436 0.599475C9.09952 0.587073 9.1133 0.576048 9.12846 0.563645L9.17394 0.530572C9.20563 0.509901 9.23733 0.490607 9.26903 0.474071C9.3021 0.457534 9.33517 0.442375 9.36825 0.429972C9.40132 0.416192 9.43577 0.406545 9.4716 0.396898C9.50468 0.392764 9.54051 0.385874 9.57634 0.383118Z" fill="#E5BC3B"/>
</svg>
