<svg width="16" height="20" viewBox="0 0 16 20" fill="none" xmlns="http://www.w3.org/2000/svg">
<path d="M16 17.1551V16.0171C16 15.3912 15.7764 14.8556 15.3292 14.4102C14.882 13.9649 14.3355 13.7419 13.6898 13.7411H7.90018C7.50089 13.7411 7.11568 13.817 6.74453 13.9687C6.37338 14.1204 6.02657 14.3006 5.7041 14.5092V13.2575C5.7041 12.847 5.68731 12.4392 5.65372 12.0341C5.62206 11.6524 5.57548 10.2204 5.51399 9.84353C5.46739 9.84353 5.31739 9.86744 5.17704 9.35989C4.82567 8.08914 4.37391 7.90896 3.82175 6.71408L3.25134 5.5192C3.04219 5.04505 2.9707 4.55685 3.03687 4.05462C3.10303 3.55239 3.31713 3.11124 3.67915 2.73115C3.83126 2.57942 3.94534 2.40872 4.02139 2.21906C4.09745 2.0294 4.13548 1.83025 4.13548 1.62162C4.13548 1.1854 3.97842 0.80607 3.66432 0.483642C3.35021 0.161214 2.97488 0 2.53833 0C2.15806 0 1.8063 0.099763 1.48307 0.299289C1.15984 0.498815 0.912662 0.768895 0.741539 1.10953C0.494361 1.58369 0.30879 2.07681 0.184821 2.5889C0.0608521 3.101 -0.000753403 3.62257 6.67572e-06 4.15363C6.67572e-06 4.45709 0.0190201 4.756 0.0570478 5.05036C0.0950747 5.34471 0.161623 5.63376 0.256692 5.9175L2.99466 15.4765C3.14676 15.9697 3.42246 16.3729 3.82175 16.6862C4.22104 16.9995 4.67736 17.1558 5.19073 17.1551H16Z" fill="#E5BC3B"/>
<path d="M4.02139 17.5068H16V19C16 19.5523 15.5523 20 15 20H5.02139C4.46911 20 4.02139 19.5523 4.02139 19V17.5068Z" fill="#E5BC3B"/>
<path d="M5.65372 12.0341C5.62206 11.6524 5.57548 10.2204 5.51399 9.84353H11.2342C11.6894 9.84353 12.0872 10.151 12.2019 10.5915L12.2515 10.7822C12.4165 11.4156 11.9384 12.0341 11.2838 12.0341H5.65372Z" fill="#E5BC3B"/>
</svg>
