<?xml version="1.0" encoding="utf-8"?><!-- Uploaded to: SVG Repo, www.svgrepo.com, Generator: SVG Repo Mixer Tools -->
<svg fill="#000000" width="800px" height="800px" viewBox="0 0 24 24" id="add-user" data-name="Flat Color" xmlns="http://www.w3.org/2000/svg" class="icon flat-color"><path id="secondary" d="M19,20a1,1,0,0,1-1-1V18H17a1,1,0,0,1,0-2h1V15a1,1,0,0,1,2,0v1h1a1,1,0,0,1,0,2H20v1A1,1,0,0,1,19,20Z" style="fill: rgb(44, 169, 188);"></path><path id="primary" d="M6.18,8.36a5,5,0,0,1,6.18-6.18,4.91,4.91,0,0,1,3.46,3.46,5,5,0,0,1-6.18,6.18A4.91,4.91,0,0,1,6.18,8.36ZM14,14H8a6,6,0,0,0-6,6,2,2,0,0,0,2,2H14a1,1,0,0,0,1-1V15A1,1,0,0,0,14,14Z" style="fill: rgb(0, 0, 0);"></path></svg>