<svg width="24" height="19" viewBox="0 0 24 19" fill="none" xmlns="http://www.w3.org/2000/svg">
<path d="M1.26923 17V9.23214C1.26923 8.67986 1.71695 8.23214 2.26923 8.23214H2.88462V3.14286L2.24462 2.41517C1.76035 1.86454 2.15134 1 2.88462 1H6.38462C7.11789 1 7.50888 1.86454 7.02461 2.41517L6.38462 3.14286V8.23214H21C21.5523 8.23214 22 8.67986 22 9.23214V17C22 17.5523 21.5523 18 21 18H18.2308H13.9231H9.61538H5.30769H2.26923C1.71695 18 1.26923 17.5523 1.26923 17Z" fill="#15144E"/>
<path d="M18.2308 18H21C21.5523 18 22 17.5523 22 17V9.23214C22 8.67986 21.5523 8.23214 21 8.23214H6.38462M18.2308 18V12.25M18.2308 18H13.9231M18.2308 12.25H5.30769M18.2308 12.25H13.9231M5.30769 12.25V18M5.30769 12.25H13.9231M5.30769 18H2.26923C1.71695 18 1.26923 17.5523 1.26923 17V9.23214C1.26923 8.67986 1.71695 8.23214 2.26923 8.23214H2.88462M5.30769 18H13.9231M2.88462 8.23214V3.14286M2.88462 8.23214H6.38462M2.88462 3.14286H6.38462M2.88462 3.14286L2.24462 2.41517C1.76035 1.86454 2.15133 1 2.88462 1H6.38462C7.11789 1 7.50888 1.86454 7.02461 2.41517L6.38462 3.14286M6.38462 3.14286V8.23214M13.9231 12.25V18M9.61538 12.25V18" stroke="#F6F4F3"/>
<path d="M23 8H17C16.4477 8 16 8.44772 16 9V15C16 15.5523 16.4477 16 17 16H23C23.5523 16 24 15.5523 24 15V9C24 8.44772 23.5523 8 23 8Z" fill="#F6F4F4"/>
<path d="M19.5204 9.00787C19.7 9.00843 19.8454 9.15471 19.8449 9.33438L19.8398 11.0161L22.0057 12.3791L22.0039 12.9624L19.8362 12.2232L19.8327 13.3624L20.2739 13.8041L20.2723 14.2563L19.5053 13.9987L18.7479 14.2524L18.7526 13.7774L19.1683 13.374L19.1754 12.2214L17.0039 12.9601L17.0102 12.3634L19.1858 11.0004L19.1943 9.33212C19.1944 9.15267 19.3407 9.0073 19.5204 9.00787Z" fill="#15144E"/>
</svg>
