<svg width="18" height="15" viewBox="0 0 18 15" fill="none" xmlns="http://www.w3.org/2000/svg">
<path d="M15.2414 0H2C0.895431 0 0 0.89543 0 2V11.7193C0 12.8239 0.895429 13.7193 2 13.7193H15.2414C16.3459 13.7193 17.2414 12.8239 17.2414 11.7193V2C17.2414 0.895431 16.3459 0 15.2414 0Z" fill="#15144E"/>
<path d="M16 7H12C10.8954 7 10 7.89543 10 9V13C10 14.1046 10.8954 15 12 15H16C17.1046 15 18 14.1046 18 13V9C18 7.89543 17.1046 7 16 7Z" fill="#F6F4F4"/>
<path d="M11.4412 2.52151H1.72477C1.60322 2.52151 1.50468 2.62005 1.50468 2.74161C1.50468 2.86316 1.60322 2.9617 1.72477 2.9617H11.4412C11.5628 2.9617 11.6613 2.86316 11.6613 2.74161C11.6613 2.62005 11.5628 2.52151 11.4412 2.52151Z" stroke="#F6F4F7"/>
<path d="M8.43185 5.16263H1.72477C1.60322 5.16263 1.50468 5.26117 1.50468 5.38272C1.50468 5.50428 1.60322 5.60282 1.72477 5.60282H8.43185C8.5534 5.60282 8.65194 5.50428 8.65194 5.38272C8.65194 5.26117 8.5534 5.16263 8.43185 5.16263Z" stroke="#F6F4F7"/>
<path d="M7.67951 7.80374H1.72477C1.60322 7.80374 1.50468 7.90228 1.50468 8.02384C1.50468 8.14539 1.60322 8.24393 1.72477 8.24393H7.67951C7.80106 8.24393 7.8996 8.14539 7.8996 8.02384C7.8996 7.90228 7.80106 7.80374 7.67951 7.80374Z" stroke="#F6F4F7"/>
<path d="M14.7025 8.07775C14.4729 8.02867 14.2386 8.00261 14.0034 8C13.7627 8.00267 13.5276 8.02858 13.2981 8.07775C13.249 8.08815 13.2046 8.11305 13.1711 8.14894C13.1376 8.18482 13.1167 8.22988 13.1113 8.27776L13.0568 8.74702C13.049 8.81321 13.0251 8.87673 12.9871 8.93249C12.9491 8.98825 12.898 9.0347 12.8378 9.06814C12.7777 9.10157 12.7103 9.12106 12.6409 9.12503C12.5715 9.12901 12.5022 9.11736 12.4383 9.09103L11.9897 8.90177C11.9441 8.88256 11.8935 8.87739 11.8447 8.88697C11.796 8.89656 11.7516 8.92043 11.7176 8.95528C11.3931 9.28806 11.1515 9.68697 11.011 10.1221C10.996 10.1679 10.9964 10.217 11.012 10.2626C11.0276 10.3082 11.0577 10.3479 11.0981 10.3763L11.4964 10.6576C11.5525 10.6971 11.5981 10.7486 11.6295 10.8081C11.6609 10.8676 11.6773 10.9334 11.6773 11.0001C11.6773 11.0668 11.6609 11.1325 11.6295 11.192C11.5981 11.2515 11.5525 11.3031 11.4964 11.3426L11.0981 11.6246C11.0578 11.653 11.0277 11.6927 11.0121 11.7382C10.9964 11.7838 10.9961 11.8328 11.011 11.8786C11.1515 12.314 11.3929 12.7132 11.7171 13.0466C11.751 13.0815 11.7954 13.1054 11.8442 13.1151C11.8929 13.1247 11.9436 13.1196 11.9891 13.1004L12.4399 12.9106C12.5034 12.8842 12.5725 12.8724 12.6416 12.8761C12.7107 12.8798 12.7779 12.899 12.8379 12.9321C12.9595 12.9996 13.0406 13.1184 13.0565 13.2524L13.1108 13.7217C13.1161 13.7689 13.1366 13.8134 13.1694 13.849C13.2022 13.8847 13.2457 13.9097 13.2939 13.9207C13.7581 14.0264 14.2417 14.0264 14.7058 13.9207C14.7541 13.9097 14.7976 13.8847 14.8304 13.849C14.8632 13.8134 14.8836 13.7689 14.889 13.7217L14.9432 13.2516C14.9506 13.1854 14.9741 13.1218 15.012 13.0659C15.0498 13.0101 15.1009 12.9636 15.1611 12.9302C15.2212 12.8968 15.2887 12.8775 15.3581 12.8739C15.4275 12.8702 15.4968 12.8823 15.5604 12.9091L16.0109 13.0989C16.0564 13.1181 16.1071 13.1232 16.1558 13.1136C16.2046 13.1039 16.249 13.08 16.2829 13.0451C16.6069 12.7121 16.8483 12.3133 16.989 11.8784C17.004 11.8326 17.0036 11.7834 16.988 11.7378C16.9724 11.6922 16.9423 11.6525 16.9019 11.6241L16.5041 11.3426C16.448 11.3031 16.4024 11.2516 16.371 11.1921C16.3395 11.1326 16.3231 11.0668 16.3231 11.0001C16.3231 10.9335 16.3394 10.8677 16.3708 10.8082C16.4022 10.7487 16.4478 10.6971 16.5039 10.6576L16.9016 10.3758C16.9419 10.3474 16.972 10.3077 16.9875 10.2621C17.0031 10.2166 17.0034 10.1675 16.9885 10.1218C16.848 9.68674 16.6065 9.28783 16.2821 8.95503C16.2482 8.92018 16.2037 8.89631 16.155 8.88672C16.1063 8.87714 16.0556 8.88231 16.0101 8.90152L15.5614 9.09078C15.5055 9.11436 15.4451 9.12662 15.384 9.12678C15.2748 9.12664 15.1694 9.08783 15.0881 9.01779C15.0069 8.94775 14.9554 8.85141 14.9437 8.74727L14.889 8.27751C14.8836 8.22974 14.8627 8.18479 14.8293 8.14896C14.7959 8.11313 14.7514 8.08823 14.7025 8.07775ZM14 12.0001C13.7233 12.0001 13.4579 11.8947 13.2622 11.7072C13.0665 11.5197 12.9566 11.2653 12.9566 11.0001C12.9566 10.7349 13.0665 10.4805 13.2622 10.293C13.4579 10.1054 13.7233 10.0001 14 10.0001C14.2767 10.0001 14.5421 10.1054 14.7378 10.293C14.9335 10.4805 15.0434 10.7349 15.0434 11.0001C15.0434 11.2653 14.9335 11.5197 14.7378 11.7072C14.5421 11.8947 14.2767 12.0001 14 12.0001Z" fill="#15144E"/>
</svg>
