<svg width="30" height="23" viewBox="0 0 30 23" fill="none" xmlns="http://www.w3.org/2000/svg">
<path d="M11.5075 0.5C14.4056 0.500193 16.7546 2.84953 16.7546 5.74707C16.7544 8.64449 14.4055 10.993 11.5075 10.9932C8.6093 10.9932 6.2596 8.64461 6.25946 5.74707C6.25946 2.84941 8.60922 0.5 11.5075 0.5Z" fill="#84F25F" stroke="#F6FFF3"/>
<path d="M11.4951 11.3005C17.2454 11.3005 21.9657 15.7142 22.4502 21.3376C22.4698 21.5655 22.2778 21.7936 21.9873 21.7936H1.00098C0.711929 21.7936 0.521303 21.5669 0.541016 21.3376C1.02549 15.7143 5.745 11.3006 11.4951 11.3005Z" fill="#84F25F" stroke="#F6FFF3"/>
<path d="M21.3004 6.31549C24.1566 6.31563 25.5094 8.53458 25.5094 10.127V10.627H27.9996C28.8281 10.627 29.4996 11.2986 29.4996 12.127V13.4932H13.1002V12.127C13.1002 11.2986 13.7718 10.627 14.6002 10.627H17.1647V10.127C17.1647 8.29681 18.5527 6.31549 21.3004 6.31549ZM21.3004 8.24713C20.9168 8.24713 20.4385 8.41972 20.0573 8.70709C19.6656 9.0023 19.2994 9.47985 19.2994 10.127V10.627H23.278V10.127C23.278 9.47272 22.926 8.99305 22.5319 8.69537C22.1508 8.40767 21.6779 8.24721 21.3004 8.24713Z" fill="#84F25F" stroke="#F6FFF3"/>
<path d="M13.1647 13.7468L29.0533 13.777H29.0699L29.4996 13.7624V20.1042C29.4996 20.9326 28.8281 21.6042 27.9996 21.6042H14.6002C13.7718 21.6042 13.1002 20.9326 13.1002 20.1042V13.7468H13.1647Z" fill="#84F25F" stroke="#F6FFF3"/>
<path d="M21.8331 17.0557L23.6052 18.1813L23.6041 18.6251L21.8305 18.06L21.8275 19.2492L22.4921 19.6207L22.4913 19.9535L21.4934 19.7291L20.4944 19.9484L20.4953 19.6156L21.1618 19.2475L21.1649 18.0583L19.3884 18.6143L19.3896 18.1705L21.1675 17.054L21.1706 15.8454C21.171 15.6616 21.3204 15.5129 21.5042 15.5134C21.688 15.5139 21.8367 15.6633 21.8362 15.8471L21.8331 17.0557Z" fill="#F6FFF3"/>
</svg>
