<svg width="31" height="28" viewBox="0 0 31 28" fill="none" xmlns="http://www.w3.org/2000/svg">
<path d="M12.5 2V26.25C12.5 26.8023 12.9477 27.25 13.5 27.25H29C29.5523 27.25 30 26.8023 30 26.25V2C30 1.44772 29.5523 1 29 1H15H13.5C12.9477 1 12.5 1.44772 12.5 2Z" fill="#E5BC3B" stroke="#FAFFE6"/>
<path d="M15 9.25V6.5C15 6.22386 15.2239 6 15.5 6H18.875C19.1511 6 19.375 6.22386 19.375 6.5V9.25C19.375 9.52614 19.1511 9.75 18.875 9.75H15.5C15.2239 9.75 15 9.52614 15 9.25Z" stroke="#FAFFE6"/>
<path d="M15 15.5V12.75C15 12.4739 15.2239 12.25 15.5 12.25H18.875C19.1511 12.25 19.375 12.4739 19.375 12.75V15.5C19.375 15.7761 19.1511 16 18.875 16H15.5C15.2239 16 15 15.7761 15 15.5Z" stroke="#FAFFE6"/>
<path d="M23.125 9.25V6.5C23.125 6.22386 23.3489 6 23.625 6H27C27.2761 6 27.5 6.22386 27.5 6.5V9.25C27.5 9.52614 27.2761 9.75 27 9.75H23.625C23.3489 9.75 23.125 9.52614 23.125 9.25Z" stroke="#FAFFE6"/>
<path d="M23.125 15.5V12.75C23.125 12.4739 23.3489 12.25 23.625 12.25H27C27.2761 12.25 27.5 12.4739 27.5 12.75V15.5C27.5 15.7761 27.2761 16 27 16H23.625C23.3489 16 23.125 15.7761 23.125 15.5Z" stroke="#FAFFE6"/>
<path d="M18.75 26.75V20.25C18.75 19.9739 18.9739 19.75 19.25 19.75H23.25C23.5261 19.75 23.75 19.9739 23.75 20.25V26.75C23.75 27.0261 23.5261 27.25 23.25 27.25H19.25C18.9739 27.25 18.75 27.0261 18.75 26.75Z" stroke="#FAFFE6"/>
<path d="M8.75 17.75C13.2887 17.75 16.5746 21.4303 16.9619 26.291C16.9798 26.5189 16.7852 26.75 16.4922 26.75H1.00098C0.712773 26.75 0.519829 26.5234 0.538086 26.291C0.925417 21.4303 4.21133 17.75 8.75 17.75Z" fill="#E5BC3B" stroke="#FAFFE6"/>
<circle cx="8.75" cy="13.5" r="4.5" fill="#E5BC3B" stroke="#FAFFE6"/>
</svg>
