<svg width="19" height="20" viewBox="0 0 19 20" fill="none" xmlns="http://www.w3.org/2000/svg">
<path d="M3.5175 11.6847H0.300743C0.107519 11.878 -0.00102615 12.4421 -0.00102615 12.7154C-0.00102615 12.9887 0.107519 13.2508 0.300743 13.4441L6.13131 19.2746C6.3257 19.4624 6.58605 19.5663 6.85629 19.5639C7.12654 19.5616 7.38505 19.4532 7.57614 19.2621C7.76724 19.071 7.87563 18.8125 7.87798 18.5422C7.88033 18.272 7.77644 18.0116 7.5887 17.8173L3.5175 13.7461H17.1668C17.4402 13.7461 17.7023 13.6375 17.8956 13.4442C18.0889 13.2509 18.1975 12.9887 18.1975 12.7154C18.1975 12.442 18.0889 12.1799 17.8956 11.9866C17.7023 11.7933 17.4402 11.6847 17.1668 11.6847L3.5175 11.6847Z" fill="#E5BC3B"/>
<path d="M14.6788 8.68469H17.8955C18.0888 8.49141 18.1973 7.92731 18.1973 7.65401C18.1973 7.38071 18.0888 7.1186 17.8955 6.92532L12.065 1.09474C11.8706 0.906998 11.6102 0.803111 11.34 0.805459C11.0698 0.807807 10.8112 0.916204 10.6201 1.1073C10.4291 1.2984 10.3207 1.55691 10.3183 1.82715C10.316 2.09739 10.4198 2.35774 10.6076 2.55213L14.6788 6.62333H1.02946C0.756108 6.62333 0.49395 6.73192 0.300659 6.92521C0.107369 7.1185 -0.0012207 7.38066 -0.0012207 7.65401C-0.0012207 7.92736 0.107369 8.18952 0.300659 8.38281C0.49395 8.5761 0.756108 8.68469 1.02946 8.68469L14.6788 8.68469Z" fill="#E5BC3B"/>
</svg>
