<svg width="18" height="14" viewBox="0 0 18 14" fill="none" xmlns="http://www.w3.org/2000/svg">
<path d="M15.2066 0H2C0.895431 0 0 0.89543 0 2V12C0 13.1046 0.89543 14 2 14H15.0342C16.1253 14 17.0151 13.1254 17.0339 12.0345L17.2063 2.03448C17.2256 0.916585 16.3247 0 15.2066 0Z" fill="#15144E"/>
<path d="M12.1742 9H1.74931C1.61162 9 1.5 9.11162 1.5 9.24931C1.5 9.38754 1.61246 9.49938 1.75068 9.49862L12.1754 9.44139C12.2968 9.44073 12.3949 9.34211 12.3949 9.2207C12.3949 9.09881 12.2961 9 12.1742 9Z" stroke="#F6F4F7"/>
<path d="M8.25 11.5H1.75C1.61193 11.5 1.5 11.6119 1.5 11.75C1.5 11.8881 1.61193 12 1.75 12H8.25C8.38807 12 8.5 11.8881 8.5 11.75C8.5 11.6119 8.38807 11.5 8.25 11.5Z" stroke="#F6F4F7"/>
<path d="M6 2H2C1.44772 2 1 2.44772 1 3V6C1 6.55228 1.44772 7 2 7H6C6.55228 7 7 6.55228 7 6V3C7 2.44772 6.55228 2 6 2Z" fill="#F6F4F3"/>
</svg>
