<svg width="12" height="17" viewBox="0 0 12 17" fill="none" xmlns="http://www.w3.org/2000/svg">
<path d="M1.616 17C1.15533 17 0.771 16.8474 0.463 16.5421C0.155 16.2369 0.000666667 15.856 0 15.3995V8.0808C0 6.8037 0.361333 5.67228 1.084 4.68655C1.806 3.70081 2.72667 2.99256 3.846 2.56179V2.13466C3.846 1.53741 4.05433 1.03232 4.471 0.619389C4.88767 0.206463 5.39733 0 6 0C6.60267 0 7.11233 0.206463 7.529 0.619389C7.94567 1.03232 8.154 1.53741 8.154 2.13466V2.5608C9.27333 2.99223 10.194 3.70081 10.916 4.68655C11.6387 5.67228 12 6.8037 12 8.0808V15.3995C12 15.8554 11.846 16.2359 11.538 16.5412C11.23 16.8464 10.8453 16.9993 10.384 17H1.616ZM9 11.5494C9.14267 11.5494 9.26167 11.5021 9.357 11.4077C9.45233 11.3132 9.5 11.1953 9.5 11.0539V8.57631H2.5V9.56733H8.5V11.0539C8.5 11.1953 8.54767 11.3132 8.643 11.4077C8.73833 11.5021 8.85733 11.5494 9 11.5494ZM4.846 2.27241C5.04267 2.22617 5.235 2.19181 5.423 2.16935C5.61167 2.14622 5.804 2.13466 6 2.13466C6.196 2.13466 6.38833 2.14589 6.577 2.16836C6.76567 2.19082 6.958 2.22551 7.154 2.27241V2.13466C7.154 1.81555 7.042 1.54533 6.818 1.32401C6.594 1.10268 6.32133 0.991683 6 0.991023C5.67867 0.990362 5.406 1.10136 5.182 1.32401C4.958 1.54666 4.846 1.81687 4.846 2.13466V2.27241Z" fill="#E5BC3B"/>
</svg>
