<svg width="36" height="36" viewBox="0 0 36 36" fill="none" xmlns="http://www.w3.org/2000/svg">
<path d="M18.4063 32.5492L18.4032 32.5539C18.0721 33.057 17.5547 33.4081 16.9648 33.5299C16.3748 33.6516 15.7607 33.5341 15.2574 33.2031L15.2511 33.199L5.11377 26.5307C4.61504 26.1987 4.26795 25.6829 4.14833 25.0959C4.0287 24.5089 4.14626 23.8984 4.47532 23.3977L4.48151 23.3883L17.5965 3.45346L17.6027 3.44404C17.932 2.94355 18.446 2.59369 19.0324 2.47088C19.6188 2.34808 20.2299 2.46232 20.7324 2.78864L30.8697 9.45698L30.8744 9.46008C31.3776 9.79117 31.7287 10.3086 31.8504 10.8984C31.9722 11.4883 31.8546 12.1024 31.5236 12.6057L31.5195 12.612L18.4063 32.5492ZM28.2971 14.9209L28.4854 15.0448C28.6408 15.147 28.8516 15.1035 28.9538 14.9481C29.056 14.7928 29.0125 14.582 28.8571 14.4798L28.6688 14.3559C28.5134 14.2537 28.3026 14.2972 28.2004 14.4526C28.0982 14.608 28.1417 14.8187 28.2971 14.9209ZM26.9784 14.0524L27.1668 14.1763C27.3222 14.2785 27.5329 14.235 27.6351 14.0796C27.7374 13.9242 27.6939 13.7135 27.5385 13.6113L27.3501 13.4874C27.1948 13.3852 26.984 13.4287 26.8818 13.5841C26.7796 13.7394 26.8231 13.9502 26.9784 14.0524ZM26.2289 9.29037L28.8108 10.9887C28.9661 11.0909 29.1769 11.0474 29.2791 10.892C29.3813 10.7367 29.3378 10.5259 29.1825 10.4237L26.6006 8.72538C26.4453 8.62317 26.2345 8.66667 26.1323 8.82204C26.0301 8.97741 26.0736 9.18816 26.2289 9.29037ZM19.6928 6.74936L28.0033 12.216C28.1587 12.3182 28.3695 12.2747 28.4717 12.1193C28.5739 11.9639 28.5304 11.7532 28.375 11.651L20.0646 6.18437C19.9092 6.08216 19.6984 6.12566 19.5962 6.28103C19.494 6.4364 19.5375 6.64715 19.6928 6.74936ZM25.6632 13.1872L25.8515 13.3111C26.0069 13.4133 26.2177 13.3698 26.3199 13.2145C26.4221 13.0591 26.3786 12.8483 26.2232 12.7461L26.0349 12.6222C25.8795 12.52 25.6688 12.5635 25.5665 12.7189C25.4643 12.8743 25.5078 13.085 25.6632 13.1872ZM24.3433 12.319L24.5316 12.4429C24.687 12.5451 24.8977 12.5016 25 12.3462C25.1022 12.1908 25.0587 11.9801 24.9033 11.8779L24.715 11.754C24.5596 11.6518 24.3488 11.6953 24.2466 11.8506C24.1444 12.006 24.1879 12.2168 24.3433 12.319ZM23.0249 11.4517L23.2132 11.5756C23.3686 11.6778 23.5794 11.6343 23.6816 11.479C23.7838 11.3236 23.7403 11.1128 23.5849 11.0106L23.3966 10.8867C23.2412 10.7845 23.0304 10.828 22.9282 10.9834C22.826 11.1388 22.8695 11.3495 23.0249 11.4517ZM21.7065 10.5845L21.8948 10.7084C22.0502 10.8106 22.261 10.7671 22.3632 10.6117C22.4654 10.4564 22.4219 10.2456 22.2665 10.1434L22.0798 10.0206C21.9244 9.91835 21.7136 9.96184 21.6114 10.1172C21.5092 10.2726 21.5527 10.4833 21.7081 10.5855L21.7065 10.5845ZM22.4025 6.8588L23.137 7.34197C23.2924 7.44418 23.5032 7.40068 23.6054 7.24531C23.7076 7.08993 23.6641 6.87918 23.5087 6.77698L22.7742 6.29381C22.6188 6.1916 22.4081 6.2351 22.3059 6.39047C22.2036 6.54584 22.2471 6.75659 22.4025 6.8588ZM20.3879 9.71599L20.5762 9.83988C20.7316 9.94209 20.9423 9.89859 21.0446 9.74322C21.1468 9.58784 21.1033 9.37709 20.9479 9.27489L20.7596 9.151C20.6042 9.04879 20.3934 9.09229 20.2912 9.24766C20.189 9.40303 20.2325 9.61378 20.3879 9.71599ZM20.5188 5.61861L21.2549 6.10281C21.4103 6.20502 21.6211 6.16152 21.7233 6.00615C21.8255 5.85077 21.782 5.64002 21.6266 5.53781L20.8906 5.05361C20.7352 4.9514 20.5244 4.9949 20.4222 5.15028C20.32 5.30565 20.3635 5.5164 20.5188 5.61861ZM19.0682 8.84903L19.2565 8.97292C19.4119 9.07513 19.6227 9.03163 19.7249 8.87626C19.8271 8.72089 19.7836 8.51014 19.6282 8.40793L19.4399 8.28404C19.2845 8.18183 19.0737 8.22533 18.9715 8.3807C18.8693 8.53608 18.9128 8.74682 19.0682 8.84903ZM17.7498 7.98181L17.9381 8.1057C18.0935 8.20791 18.3043 8.16441 18.4065 8.00903C18.5087 7.85366 18.4652 7.64291 18.3099 7.5407L18.1199 7.41578C17.9646 7.31357 17.7538 7.35707 17.6516 7.51245C17.5494 7.66782 17.5929 7.87857 17.7482 7.98078L17.7498 7.98181ZM16.4301 7.11485L16.6185 7.23874C16.7738 7.34095 16.9846 7.29745 17.0868 7.14208C17.189 6.9867 17.1456 6.77596 16.9902 6.67375L16.8003 6.54883C16.6449 6.44662 16.4341 6.49011 16.3319 6.64549C16.2297 6.80086 16.2732 7.01161 16.4286 7.11382L16.4301 7.11485Z" fill="#CFB1F6"/>
<path d="M19.257 18.767L21.4592 24.0093L20.7709 24.9946L17.6992 20.9968L15.8547 23.6372L16.759 25.4907L16.2428 26.2297L14.3701 24.1884L11.809 23.1323L12.3253 22.3934L14.3768 22.6047L16.2213 19.9644L11.4107 18.4557L12.0991 17.4704L17.7791 17.7345L19.6538 15.0509C19.9389 14.6428 20.5009 14.5431 20.909 14.8282C21.3171 15.1133 21.4168 15.6752 21.1317 16.0834L19.257 18.767Z" fill="#FBF8FF"/>
</svg>
