<svg width="20" height="21" viewBox="0 0 20 21" fill="none" xmlns="http://www.w3.org/2000/svg">
<path d="M12.3415 0.272133C11.5763 0.100333 10.7953 0.00913105 10.0113 0C9.20906 0.00933359 8.42536 0.100044 7.66022 0.272133C7.49669 0.308541 7.34865 0.395684 7.23696 0.521275C7.12526 0.646866 7.05556 0.80457 7.03767 0.972152L6.85594 2.61457C6.82989 2.84623 6.75032 3.06854 6.62359 3.2637C6.49686 3.45887 6.3265 3.62146 6.12613 3.73849C5.92577 3.85551 5.70096 3.92371 5.46971 3.93762C5.23846 3.95153 5.00719 3.91077 4.7944 3.8186L3.29888 3.15621C3.14709 3.08896 2.97827 3.07085 2.8158 3.1044C2.65332 3.13795 2.50523 3.22149 2.39201 3.34347C1.31044 4.50819 0.505141 5.90439 0.0365772 7.4272C-0.0133142 7.58748 -0.0121398 7.75946 0.0399361 7.91903C0.0920119 8.07861 0.192381 8.2178 0.326985 8.3171L1.65469 9.3015C1.8416 9.4397 1.99358 9.62023 2.09832 9.82848C2.20307 10.0367 2.25765 10.2669 2.25765 10.5003C2.25765 10.7337 2.20307 10.9638 2.09832 11.1721C1.99358 11.3803 1.8416 11.5609 1.65469 11.6991L0.326985 12.6861C0.192555 12.7853 0.0922982 12.9244 0.0402302 13.0838C-0.0118377 13.2432 -0.013115 13.415 0.0365772 13.5751C0.505144 15.0988 1.30974 16.4963 2.39027 17.6632C2.50339 17.7854 2.65143 17.8691 2.81391 17.9028C2.97639 17.9365 3.14526 17.9185 3.29714 17.8514L4.79961 17.1872C5.01126 17.0947 5.2415 17.0533 5.47191 17.0663C5.70231 17.0794 5.92647 17.1466 6.12645 17.2625C6.53163 17.4987 6.80204 17.9144 6.85507 18.3834L7.03593 20.0258C7.05372 20.1911 7.12196 20.3468 7.23125 20.4716C7.34055 20.5963 7.48554 20.6839 7.64631 20.7223C9.19358 21.0926 10.8056 21.0926 12.3528 20.7223C12.5136 20.6839 12.6586 20.5963 12.7679 20.4716C12.8772 20.3468 12.9454 20.1911 12.9632 20.0258L13.1441 18.3808C13.1686 18.1489 13.2471 17.9262 13.3733 17.7307C13.4995 17.5352 13.6697 17.3725 13.8702 17.2557C14.0706 17.1388 14.2957 17.0713 14.527 17.0585C14.7582 17.0457 14.9893 17.088 15.2013 17.182L16.7029 17.8461C16.8547 17.9133 17.0236 17.9312 17.1861 17.8975C17.3486 17.8638 17.4966 17.7801 17.6097 17.658C18.6897 16.4924 19.4943 15.0964 19.9634 13.5742C20.0133 13.414 20.0121 13.242 19.9601 13.0824C19.908 12.9228 19.8076 12.7837 19.673 12.6843L18.3471 11.6991C18.1601 11.5609 18.008 11.3805 17.9032 11.1723C17.7984 10.964 17.7437 10.7339 17.7437 10.5005C17.7436 10.2671 17.7981 10.0369 17.9027 9.82864C18.0074 9.62035 18.1593 9.43977 18.3462 9.3015L19.6721 8.31535C19.8064 8.21599 19.9065 8.0769 19.9584 7.91751C20.0103 7.75813 20.0115 7.5864 19.9617 7.42633C19.4934 5.90359 18.6884 4.5074 17.6071 3.34259C17.4939 3.22062 17.3458 3.13707 17.1833 3.10352C17.0209 3.06998 16.852 3.08808 16.7002 3.15534L15.2047 3.81773C15.0184 3.90026 14.8171 3.94316 14.6135 3.94373C14.2492 3.94325 13.8979 3.80741 13.627 3.56226C13.3562 3.31712 13.1848 2.97995 13.1458 2.61545L12.9632 0.971276C12.9453 0.804086 12.8757 0.646752 12.7644 0.521359C12.653 0.395967 12.5046 0.308813 12.3415 0.272133ZM10 14.0004C9.07759 14.0004 8.19297 13.6316 7.54073 12.9752C6.88849 12.3188 6.52206 11.4286 6.52206 10.5003C6.52206 9.572 6.88849 8.68174 7.54073 8.02534C8.19297 7.36895 9.07759 7.00019 10 7.00019C10.9224 7.00019 11.807 7.36895 12.4593 8.02534C13.1115 8.68174 13.4779 9.572 13.4779 10.5003C13.4779 11.4286 13.1115 12.3188 12.4593 12.9752C11.807 13.6316 10.9224 14.0004 10 14.0004Z" fill="#15144E"/>
<circle cx="10" cy="11" r="5" fill="#F6F4F3"/>
<path d="M10.4735 10.8247L10.1666 10.7534V9.13085C10.6257 9.19367 10.9096 9.48122 10.958 9.834C10.964 9.88233 11.0051 9.91737 11.0534 9.91737H11.5959C11.6527 9.91737 11.6974 9.86783 11.6925 9.81105C11.6188 9.05836 10.999 8.57509 10.1714 8.49173V8.09665C10.1714 8.04349 10.1279 8 10.0748 8H9.73529C9.68213 8 9.63864 8.04349 9.63864 8.09665V8.49535C8.78325 8.57871 8.11393 9.05111 8.11393 9.93307C8.11393 10.7498 8.7156 11.1437 9.34747 11.2947L9.64589 11.3708V13.0949C9.11188 13.0236 8.81225 12.7384 8.75063 12.3542C8.74338 12.3083 8.70231 12.2745 8.65519 12.2745H8.09701C8.04023 12.2745 7.99553 12.3228 8.00036 12.3796C8.05473 13.0441 8.55853 13.6554 9.63381 13.734V14.1133C9.63381 14.1665 9.6773 14.21 9.73046 14.21H10.0736C10.1267 14.21 10.1702 14.1665 10.1702 14.1121L10.1678 13.7291C11.1138 13.6458 11.7904 13.1396 11.7904 12.231C11.7892 11.3925 11.2564 11.018 10.4735 10.8247ZM9.64468 10.629C9.57702 10.6096 9.52024 10.5915 9.46346 10.5686C9.05509 10.4212 8.86541 10.1832 8.86541 9.87629C8.86541 9.43772 9.19766 9.18763 9.64468 9.13085V10.629ZM10.1666 13.0985V11.4832C10.2041 11.494 10.2379 11.5025 10.2729 11.5097C10.8444 11.6837 11.0365 11.9253 11.0365 12.2963C11.0365 12.7687 10.6813 13.0526 10.1666 13.0985Z" fill="#15144E"/>
</svg>
