<svg width="20" height="20" viewBox="0 0 20 20" fill="none" xmlns="http://www.w3.org/2000/svg">
<g clip-path="url(#clip0_596_143)">
<path d="M3.33333 11.8333H8.33333C8.55435 11.8333 8.76631 11.7455 8.92259 11.5893C9.07887 11.433 9.16667 11.221 9.16667 11V4.33333C9.16667 4.11232 9.07887 3.90036 8.92259 3.74408C8.76631 3.5878 8.55435 3.5 8.33333 3.5H3.33333C3.11232 3.5 2.90036 3.5878 2.74408 3.74408C2.5878 3.90036 2.5 4.11232 2.5 4.33333V11C2.5 11.221 2.5878 11.433 2.74408 11.5893C2.90036 11.7455 3.11232 11.8333 3.33333 11.8333ZM2.5 17.6667C2.5 17.8877 2.5878 18.0996 2.74408 18.2559C2.90036 18.4122 3.11232 18.5 3.33333 18.5H8.33333C8.55435 18.5 8.76631 18.4122 8.92259 18.2559C9.07887 18.0996 9.16667 17.8877 9.16667 17.6667V14.3333C9.16667 14.1123 9.07887 13.9004 8.92259 13.7441C8.76631 13.5878 8.55435 13.5 8.33333 13.5H3.33333C3.11232 13.5 2.90036 13.5878 2.74408 13.7441C2.5878 13.9004 2.5 14.1123 2.5 14.3333V17.6667ZM10.8333 17.6667C10.8333 17.8877 10.9211 18.0996 11.0774 18.2559C11.2337 18.4122 11.4457 18.5 11.6667 18.5H16.6667C16.8877 18.5 17.0996 18.4122 17.2559 18.2559C17.4122 18.0996 17.5 17.8877 17.5 17.6667V11.8333C17.5 11.6123 17.4122 11.4004 17.2559 11.2441C17.0996 11.0878 16.8877 11 16.6667 11H11.6667C11.4457 11 11.2337 11.0878 11.0774 11.2441C10.9211 11.4004 10.8333 11.6123 10.8333 11.8333V17.6667ZM11.6667 9.33333H16.6667C16.8877 9.33333 17.0996 9.24554 17.2559 9.08926C17.4122 8.93297 17.5 8.72101 17.5 8.5V4.33333C17.5 4.11232 17.4122 3.90036 17.2559 3.74408C17.0996 3.5878 16.8877 3.5 16.6667 3.5H11.6667C11.4457 3.5 11.2337 3.5878 11.0774 3.74408C10.9211 3.90036 10.8333 4.11232 10.8333 4.33333V8.5C10.8333 8.72101 10.9211 8.93297 11.0774 9.08926C11.2337 9.24554 11.4457 9.33333 11.6667 9.33333Z" fill="#15144E"/>
</g>
<defs>
<clipPath id="clip0_596_143">
<rect width="20" height="20" fill="white"/>
</clipPath>
</defs>
</svg>
