<svg width="19" height="15" viewBox="0 0 19 15" fill="none" xmlns="http://www.w3.org/2000/svg">
<path d="M16.2414 1H3C1.89543 1 1 1.89543 1 3V12.7193C1 13.8239 1.89543 14.7193 3 14.7193H16.2414C17.3459 14.7193 18.2414 13.8239 18.2414 12.7193V3C18.2414 1.89543 17.3459 1 16.2414 1Z" fill="#15144E"/>
<path d="M14.7025 7.07775C14.4729 7.02867 14.2386 7.00261 14.0034 7C13.7627 7.00267 13.5276 7.02858 13.2981 7.07775C13.249 7.08815 13.2046 7.11305 13.1711 7.14894C13.1376 7.18482 13.1167 7.22988 13.1113 7.27776L13.0568 7.74702C13.049 7.81321 13.0251 7.87673 12.9871 7.93249C12.9491 7.98825 12.898 8.0347 12.8378 8.06814C12.7777 8.10157 12.7103 8.12106 12.6409 8.12503C12.5715 8.12901 12.5022 8.11736 12.4383 8.09103L11.9897 7.90177C11.9441 7.88256 11.8935 7.87739 11.8447 7.88697C11.796 7.89656 11.7516 7.92043 11.7176 7.95528C11.3931 8.28806 11.1515 8.68697 11.011 9.12206C10.996 9.16785 10.9964 9.21699 11.012 9.26258C11.0276 9.30817 11.0577 9.34794 11.0981 9.37632L11.4964 9.65757C11.5525 9.69706 11.5981 9.74864 11.6295 9.80814C11.6609 9.86764 11.6773 9.93339 11.6773 10.0001C11.6773 10.0668 11.6609 10.1325 11.6295 10.192C11.5981 10.2515 11.5525 10.3031 11.4964 10.3426L11.0981 10.6246C11.0578 10.653 11.0277 10.6927 11.0121 10.7382C10.9964 10.7838 10.9961 10.8328 11.011 10.8786C11.1515 11.314 11.3929 11.7132 11.7171 12.0466C11.751 12.0815 11.7954 12.1054 11.8442 12.1151C11.8929 12.1247 11.9436 12.1196 11.9891 12.1004L12.4399 11.9106C12.5034 11.8842 12.5725 11.8724 12.6416 11.8761C12.7107 11.8798 12.7779 11.899 12.8379 11.9321C12.9595 11.9996 13.0406 12.1184 13.0565 12.2524L13.1108 12.7217C13.1161 12.7689 13.1366 12.8134 13.1694 12.849C13.2022 12.8847 13.2457 12.9097 13.2939 12.9207C13.7581 13.0264 14.2417 13.0264 14.7058 12.9207C14.7541 12.9097 14.7976 12.8847 14.8304 12.849C14.8632 12.8134 14.8836 12.7689 14.889 12.7217L14.9432 12.2516C14.9506 12.1854 14.9741 12.1218 15.012 12.0659C15.0498 12.0101 15.1009 11.9636 15.1611 11.9302C15.2212 11.8968 15.2887 11.8775 15.3581 11.8739C15.4275 11.8702 15.4968 11.8823 15.5604 11.9091L16.0109 12.0989C16.0564 12.1181 16.1071 12.1232 16.1558 12.1136C16.2046 12.1039 16.249 12.08 16.2829 12.0451C16.6069 11.7121 16.8483 11.3133 16.989 10.8784C17.004 10.8326 17.0036 10.7834 16.988 10.7378C16.9724 10.6922 16.9423 10.6525 16.9019 10.6241L16.5041 10.3426C16.448 10.3031 16.4024 10.2516 16.371 10.1921C16.3395 10.1326 16.3231 10.0668 16.3231 10.0001C16.3231 9.93346 16.3394 9.8677 16.3708 9.80818C16.4022 9.74867 16.4478 9.69708 16.5039 9.65757L16.9016 9.37582C16.9419 9.34743 16.972 9.30769 16.9875 9.26215C17.0031 9.21661 17.0034 9.16754 16.9885 9.12181C16.848 8.68674 16.6065 8.28783 16.2821 7.95503C16.2482 7.92018 16.2037 7.89631 16.155 7.88672C16.1063 7.87714 16.0556 7.88231 16.0101 7.90152L15.5614 8.09078C15.5055 8.11436 15.4451 8.12662 15.384 8.12678C15.2748 8.12664 15.1694 8.08783 15.0881 8.01779C15.0069 7.94775 14.9554 7.85141 14.9437 7.74727L14.889 7.27751C14.8836 7.22974 14.8627 7.18479 14.8293 7.14896C14.7959 7.11313 14.7514 7.08823 14.7025 7.07775ZM14 11.0001C13.7233 11.0001 13.4579 10.8947 13.2622 10.7072C13.0665 10.5197 12.9566 10.2653 12.9566 10.0001C12.9566 9.73486 13.0665 9.4805 13.2622 9.29296C13.4579 9.10541 13.7233 9.00005 14 9.00005C14.2767 9.00005 14.5421 9.10541 14.7378 9.29296C14.9335 9.4805 15.0434 9.73486 15.0434 10.0001C15.0434 10.2653 14.9335 10.5197 14.7378 10.7072C14.5421 10.8947 14.2767 11.0001 14 11.0001Z" fill="#F6F4F4"/>
<path d="M5 0C2.23884 0 0 2.23884 0 5C0 7.76116 2.23884 10 5 10C7.76116 10 10 7.76116 10 5C10 2.23884 7.76116 0 5 0Z" fill="#F6F4F5"/>
<path d="M5.00547 2.00157C5.22107 2.00146 5.39617 2.17635 5.39631 2.39196L5.39763 4.41001L8.00262 6.0361L8.00308 6.73604L5.39857 5.85858L5.39946 7.22564L5.93074 7.75371L5.93084 8.29637L5.00936 7.99063L4.10157 8.29837L4.1051 7.72836L4.60214 7.24247L4.60567 5.85925L2.00309 6.75533L2.00809 6.03924L4.61279 4.39401L4.61565 2.3921C4.61499 2.17676 4.78986 2.00168 5.00547 2.00157Z" fill="#15144E"/>
</svg>
