<svg width="24" height="24" viewBox="0 0 24 24" fill="none" xmlns="http://www.w3.org/2000/svg">
<path d="M9.34375 18V6.21429H9.9375C9.9375 5.32143 10.2839 4.5625 10.9766 3.9375C11.6693 3.3125 12.5104 3 13.5 3C14.4896 3 15.3307 3.3125 16.0234 3.9375C16.7161 4.5625 17.0625 5.32143 17.0625 6.21429H17.6562V18H9.34375ZM11.7188 6.21429H15.2812C15.2812 5.75 15.113 5.36607 14.7766 5.0625C14.4401 4.75893 14.0146 4.60714 13.5 4.60714C12.9854 4.60714 12.5599 4.75893 12.2234 5.0625C11.887 5.36607 11.7188 5.75 11.7188 6.21429ZM19.4375 18V6.21429H20.625C21.2781 6.21429 21.8374 6.42428 22.3029 6.84429C22.7684 7.26429 23.0008 7.76857 23 8.35714V15.8571C23 16.4464 22.7676 16.9511 22.3029 17.3711C21.8382 17.7911 21.2789 18.0007 20.625 18H19.4375ZM6.375 18C5.72187 18 5.16296 17.7904 4.69825 17.3711C4.23354 16.9518 4.00079 16.4471 4 15.8571V8.35714C4 7.76786 4.23275 7.26357 4.69825 6.84429C5.16375 6.425 5.72267 6.215 6.375 6.21429H7.5625V18H6.375Z" fill="#E5BC3B"/>
</svg>
