<svg width="24" height="21" viewBox="0 0 24 21" fill="none" xmlns="http://www.w3.org/2000/svg">
<path d="M7.1798 17.0785C7.34085 17.2135 7.58633 17.1574 7.67267 16.9657L10.6962 10.2556C10.8002 10.0248 10.9861 9.83548 11.2296 9.76644C11.5192 9.68433 11.8194 9.64252 12.1217 9.64273C12.5556 9.64303 12.9851 9.72989 13.3851 9.89821C13.8484 10.0897 14.2614 10.3855 14.5919 10.7624C14.6356 10.8123 14.6777 10.8634 14.7182 10.9156C15.1199 11.4344 15.8641 11.7451 16.5155 11.6658C16.5812 11.6578 16.6472 11.6518 16.7135 11.6478C17.214 11.6177 17.7147 11.7033 18.1768 11.8981C18.582 12.066 18.9493 12.3137 19.2568 12.6265C19.519 12.8931 20.0931 12.7892 20.1088 12.4156C20.2671 8.65764 18.2768 4.98823 14.8299 3.03551C14.3591 2.76884 14.1297 2.19837 14.3384 1.69918L14.4551 1.4199C14.485 1.34284 14.4835 1.25717 14.4511 1.18114C14.4188 1.10511 14.358 1.04474 14.2817 1.01289C14.2054 0.981039 14.1197 0.980227 14.0429 1.01063C13.966 1.04103 13.9041 1.10024 13.8702 1.17564L13.7534 1.45548C13.545 1.95458 12.9782 2.19236 12.4578 2.04519C8.6454 0.967131 4.63623 2.13198 2.07497 4.88664C1.82029 5.16055 2.15008 5.64188 2.52408 5.64089C2.96274 5.63973 3.39714 5.72678 3.80146 5.89687C4.26487 6.08841 4.67787 6.38418 5.00838 6.76122C5.05208 6.81107 5.09418 6.86216 5.13463 6.91441C5.53639 7.43328 6.28064 7.74403 6.93206 7.66479C6.99771 7.65681 7.06368 7.65081 7.12989 7.64682C7.63042 7.61668 8.13116 7.70231 8.5932 7.89707C9.21701 8.15652 9.74127 8.6016 10.0982 9.1666C10.2515 9.40931 10.2447 9.7138 10.1267 9.97555L7.09443 16.7052C7.03607 16.8347 7.07095 16.9872 7.1798 17.0785Z" fill="#15144E"/>
<path d="M2.33666 9.89924L6.36703 15.3952C6.5554 15.6521 6.85489 15.8038 7.17343 15.8038H22.4861C22.954 15.8038 23.3333 16.1831 23.3333 16.6511C23.3333 17.119 22.954 17.4983 22.4861 17.4983H21.9807V19.7108C21.9807 20.0844 21.6779 20.3872 21.3044 20.3872C20.9308 20.3872 20.628 20.0844 20.628 19.7108V17.4983H7.77778V19.7108C7.77778 20.0844 7.47498 20.3872 7.10145 20.3872C6.72793 20.3872 6.42512 20.0844 6.42512 19.7108V17.4983H6.25952C5.93875 17.4983 5.63744 17.3444 5.44939 17.0845L0.970237 10.8946C0.56579 10.3357 0.965123 9.55383 1.65503 9.55383C1.92428 9.55383 2.17743 9.68211 2.33666 9.89924Z" fill="#15144E"/>
<path d="M6.42512 17.4983H6.25952C5.93875 17.4983 5.63744 17.3444 5.44939 17.0845L0.970237 10.8946C0.56579 10.3357 0.965123 9.55383 1.65503 9.55383C1.92428 9.55383 2.17743 9.68211 2.33666 9.89924L6.36703 15.3952C6.5554 15.6521 6.85489 15.8038 7.17343 15.8038H22.4861C22.954 15.8038 23.3333 16.1831 23.3333 16.6511C23.3333 17.119 22.954 17.4983 22.4861 17.4983H21.9807M6.42512 17.4983V19.7108C6.42512 20.0844 6.72793 20.3872 7.10145 20.3872C7.47498 20.3872 7.77778 20.0844 7.77778 19.7108V17.4983M6.42512 17.4983H7.77778M7.77778 17.4983H20.628M20.628 17.4983V19.7108C20.628 20.0844 20.9308 20.3872 21.3044 20.3872C21.6779 20.3872 21.9807 20.0844 21.9807 19.7108V17.4983M20.628 17.4983H21.9807" stroke="#15144E"/>
</svg>
