<svg width="18" height="20" viewBox="0 0 18 20" fill="none" xmlns="http://www.w3.org/2000/svg">
<path d="M1 4V18.5C1 19.0523 1.44772 19.5 2 19.5H13C13.5523 19.5 14 19.0523 14 18.5V4C14 3.44772 13.5523 3 13 3H2.57143H2C1.44772 3 1 3.44772 1 4Z" fill="#15144E" stroke="#F6F4F4"/>
<path d="M3.57143 8.3V6.34285C3.57143 6.2324 3.66097 6.14285 3.77143 6.14285H6.12143C6.23188 6.14285 6.32143 6.2324 6.32143 6.34285V8.3C6.32143 8.41045 6.23188 8.5 6.12143 8.5H3.77143C3.66097 8.5 3.57143 8.41045 3.57143 8.3Z" stroke="#F6F4F4"/>
<path d="M3.57143 12.2286V10.2714C3.57143 10.161 3.66097 10.0714 3.77143 10.0714H6.12143C6.23188 10.0714 6.32143 10.161 6.32143 10.2714V12.2286C6.32143 12.339 6.23188 12.4286 6.12143 12.4286H3.77143C3.66097 12.4286 3.57143 12.339 3.57143 12.2286Z" stroke="#F6F4F4"/>
<path d="M8.67857 8.3V6.34285C8.67857 6.2324 8.76812 6.14285 8.87857 6.14285H11.2286C11.339 6.14285 11.4286 6.2324 11.4286 6.34285V8.3C11.4286 8.41045 11.339 8.5 11.2286 8.5H8.87857C8.76812 8.5 8.67857 8.41045 8.67857 8.3Z" stroke="#F6F4F4"/>
<path d="M8.67857 12.2286V10.2714C8.67857 10.161 8.76812 10.0714 8.87857 10.0714H11.2286C11.339 10.0714 11.4286 10.161 11.4286 10.2714V12.2286C11.4286 12.339 11.339 12.4286 11.2286 12.4286H8.87857C8.76812 12.4286 8.67857 12.339 8.67857 12.2286Z" stroke="#F6F4F4"/>
<path d="M5.92857 19V15.2857C5.92857 15.0096 6.15243 14.7857 6.42857 14.7857H8.57143C8.84757 14.7857 9.07143 15.0096 9.07143 15.2857V19C9.07143 19.2761 8.84757 19.5 8.57143 19.5H6.42857C6.15243 19.5 5.92857 19.2761 5.92857 19Z" stroke="#F6F4F4"/>
<path d="M12.5 0C9.46272 0 7 2.46272 7 5.5C7 8.53728 9.46272 11 12.5 11C15.5373 11 18 8.53728 18 5.5C18 2.46272 15.5373 0 12.5 0Z" fill="#F6F4F5"/>
<path d="M13.3195 2.09071C13.0517 2.03344 12.7784 2.00304 12.504 2C12.2232 2.00311 11.9489 2.03335 11.6811 2.09071C11.6238 2.10285 11.572 2.13189 11.5329 2.17376C11.4938 2.21562 11.4694 2.26819 11.4632 2.32405L11.3996 2.87152C11.3905 2.94874 11.3626 3.02285 11.3183 3.0879C11.2739 3.15296 11.2143 3.20715 11.1441 3.24616C11.074 3.28517 10.9953 3.3079 10.9144 3.31254C10.8335 3.31718 10.7525 3.30359 10.678 3.27287L10.1546 3.05207C10.1015 3.02965 10.0424 3.02362 9.98553 3.0348C9.92866 3.04598 9.87683 3.07383 9.8372 3.11449C9.45866 3.50273 9.1768 3.96813 9.0128 4.47573C8.99534 4.52916 8.99575 4.58649 9.01398 4.63968C9.0322 4.69287 9.06733 4.73927 9.11444 4.77237L9.57914 5.1005C9.64456 5.14657 9.69775 5.20674 9.73441 5.27616C9.77107 5.34558 9.79018 5.42229 9.79018 5.5001C9.79018 5.5779 9.77107 5.65461 9.73441 5.72403C9.69775 5.79345 9.64456 5.85362 9.57914 5.89969L9.11444 6.2287C9.06739 6.26178 9.0323 6.30813 9.01408 6.36126C8.99586 6.41439 8.99541 6.47165 9.0128 6.52504C9.1768 7.03295 9.45841 7.49878 9.8366 7.88774C9.87619 7.92845 9.928 7.95636 9.98487 7.96759C10.0417 7.97883 10.1008 7.97284 10.154 7.95045L10.6799 7.72907C10.7539 7.69822 10.8345 7.68442 10.9152 7.68877C10.9958 7.69313 11.0743 7.71552 11.1443 7.75416C11.2861 7.83291 11.3807 7.97146 11.3993 8.12779L11.4626 8.67527C11.4688 8.73037 11.4927 8.78228 11.5309 8.82385C11.5692 8.86543 11.6199 8.89463 11.6762 8.90744C12.2178 9.03085 12.7819 9.03085 13.3235 8.90744C13.3798 8.89463 13.4305 8.86543 13.4688 8.82385C13.507 8.78228 13.5309 8.73037 13.5371 8.67527L13.6004 8.12692C13.609 8.04965 13.6365 7.97541 13.6807 7.91025C13.7248 7.84508 13.7844 7.79082 13.8546 7.75189C13.9247 7.71295 14.0035 7.69043 14.0844 7.68616C14.1654 7.68189 14.2462 7.696 14.3204 7.72732L14.846 7.9487C14.8992 7.97109 14.9583 7.97708 15.0151 7.96584C15.072 7.95461 15.1238 7.9267 15.1634 7.88599C15.5414 7.49745 15.823 7.03214 15.9872 6.52475C16.0047 6.47132 16.0042 6.414 15.986 6.36081C15.9678 6.30761 15.9327 6.26122 15.8856 6.22812L15.4215 5.89969C15.356 5.85365 15.3028 5.79349 15.2661 5.72409C15.2294 5.65468 15.2103 5.57797 15.2103 5.50017C15.2102 5.42236 15.2293 5.34565 15.266 5.27621C15.3026 5.20678 15.3558 5.14659 15.4212 5.1005L15.8853 4.77178C15.9322 4.73866 15.9673 4.6923 15.9854 4.63917C16.0036 4.58604 16.004 4.5288 15.9866 4.47544C15.8227 3.96786 15.5409 3.50247 15.1625 3.1142C15.1229 3.07354 15.071 3.04569 15.0142 3.03451C14.9573 3.02333 14.8982 3.02936 14.8451 3.05178L14.3217 3.27258C14.2564 3.30009 14.186 3.31439 14.1147 3.31458C13.9872 3.31442 13.8643 3.26914 13.7695 3.18742C13.6747 3.10571 13.6147 2.99332 13.601 2.87182L13.5371 2.32376C13.5308 2.26803 13.5065 2.21558 13.4675 2.17379C13.4286 2.13199 13.3766 2.10294 13.3195 2.09071ZM12.5 6.66679C12.1772 6.66679 11.8675 6.54387 11.6393 6.32508C11.411 6.10628 11.2827 5.80952 11.2827 5.5001C11.2827 5.19067 11.411 4.89391 11.6393 4.67512C11.8675 4.45632 12.1772 4.3334 12.5 4.3334C12.8228 4.3334 13.1325 4.45632 13.3607 4.67512C13.589 4.89391 13.7173 5.19067 13.7173 5.5001C13.7173 5.80952 13.589 6.10628 13.3607 6.32508C13.1325 6.54387 12.8228 6.66679 12.5 6.66679Z" fill="#15144E"/>
</svg>
