<svg width="17" height="14" viewBox="0 0 17 14" fill="none" xmlns="http://www.w3.org/2000/svg">
<path d="M15.033 0.248222L2.03302 0.0335688C0.915685 0.0151196 0 0.915809 0 2.0333V11.7521C0 12.8437 0.875434 13.7338 1.96698 13.7518L14.967 13.9664C16.0843 13.9849 17 13.0842 17 11.9667V2.24795C17 1.15625 16.1246 0.266246 15.033 0.248222Z" fill="#15144E"/>
<path d="M4 11H3V8H4V11Z" fill="#F6F4F3" stroke="#F6F4F3"/>
<path d="M7 11H6V6H7V11Z" fill="#F6F4F3" stroke="#F6F4F3"/>
<path d="M10 11H9V5H10V11Z" fill="#F6F4F3" stroke="#F6F4F3"/>
<path d="M13 11H12V3H13V11Z" fill="#F6F4F3" stroke="#F6F4F3"/>
<path d="M4.00906 4.31444L4.01271 5.99768L3.71231 6.18832L3.3292 4.7459L2.52417 5.25678L2.5598 5.86625L2.33449 6.00923L2.05575 5.238L1.47661 4.65742L1.70191 4.51444L2.23821 4.80617L3.04323 4.29529L1.90121 3.33449L2.20162 3.14385L3.7231 3.86384L4.5413 3.34459C4.66573 3.26563 4.83062 3.30249 4.90958 3.42691C4.98855 3.55134 4.95169 3.71623 4.82726 3.7952L4.00906 4.31444Z" fill="#F7F4F3"/>
</svg>
