<svg width="18" height="14" viewBox="0 0 18 14" fill="none" xmlns="http://www.w3.org/2000/svg">
<path d="M16 0H2C0.895431 0 0 0.89543 0 2V12C0 13.1046 0.89543 14 2 14H9H16C17.1046 14 18 13.1046 18 12V2C18 0.895431 17.1046 0 16 0Z" fill="#15144E"/>
<path d="M5.61111 3.4C5.40648 3.4 5.23507 3.3328 5.09689 3.1984C4.9587 3.064 4.88937 2.89787 4.88889 2.7C4.88841 2.50213 4.95774 2.336 5.09689 2.2016C5.23604 2.0672 5.40745 2 5.61111 2H14.2778C14.4824 2 14.6541 2.0672 14.7927 2.2016C14.9314 2.336 15.0005 2.50213 15 2.7C14.9995 2.89787 14.9302 3.06423 14.792 3.1991C14.6538 3.33397 14.4824 3.40093 14.2778 3.4H5.61111ZM5.61111 6.19999C5.40648 6.19999 5.23507 6.13279 5.09689 5.99839C4.9587 5.86399 4.88937 5.69786 4.88889 5.5C4.88841 5.30213 4.95774 5.136 5.09689 5.0016C5.23604 4.8672 5.40745 4.8 5.61111 4.8H14.2778C14.4824 4.8 14.6541 4.8672 14.7927 5.0016C14.9314 5.136 15.0005 5.30213 15 5.5C14.9995 5.69786 14.9302 5.86423 14.792 5.99909C14.6538 6.13396 14.4824 6.20093 14.2778 6.19999H5.61111ZM5.61111 8.99999C5.40648 8.99999 5.23507 8.93279 5.09689 8.79839C4.9587 8.66399 4.88937 8.49786 4.88889 8.29999C4.88841 8.10212 4.95774 7.93599 5.09689 7.80159C5.23604 7.66719 5.40745 7.59999 5.61111 7.59999H14.2778C14.4824 7.59999 14.6541 7.66719 14.7927 7.80159C14.9314 7.93599 15.0005 8.10212 15 8.29999C14.9995 8.49786 14.9302 8.66422 14.792 8.79909C14.6538 8.93396 14.4824 9.00092 14.2778 8.99999H5.61111ZM2.72222 3.4C2.51759 3.4 2.34619 3.3328 2.208 3.1984C2.06982 3.064 2.00048 2.89787 2 2.7C1.99952 2.50213 2.06885 2.336 2.208 2.2016C2.34715 2.0672 2.51856 2 2.72222 2C2.92589 2 3.09754 2.0672 3.23717 2.2016C3.3768 2.336 3.44589 2.50213 3.44445 2.7C3.443 2.89787 3.37367 3.06423 3.23645 3.1991C3.09922 3.33397 2.92782 3.40093 2.72222 3.4ZM2.72222 6.19999C2.51759 6.19999 2.34619 6.13279 2.208 5.99839C2.06982 5.86399 2.00048 5.69786 2 5.5C1.99952 5.30213 2.06885 5.136 2.208 5.0016C2.34715 4.8672 2.51856 4.8 2.72222 4.8C2.92589 4.8 3.09754 4.8672 3.23717 5.0016C3.3768 5.136 3.44589 5.30213 3.44445 5.5C3.443 5.69786 3.37367 5.86423 3.23645 5.99909C3.09922 6.13396 2.92782 6.20093 2.72222 6.19999ZM2.72222 8.99999C2.51759 8.99999 2.34619 8.93279 2.208 8.79839C2.06982 8.66399 2.00048 8.49786 2 8.29999C1.99952 8.10212 2.06885 7.93599 2.208 7.80159C2.34715 7.66719 2.51856 7.59999 2.72222 7.59999C2.92589 7.59999 3.09754 7.66719 3.23717 7.80159C3.3768 7.93599 3.44589 8.10212 3.44445 8.29999C3.443 8.49786 3.37367 8.66422 3.23645 8.79909C3.09922 8.93396 2.92782 9.00092 2.72222 8.99999Z" fill="#F7F3F0"/>
<path d="M5.61111 12C5.40648 12 5.23507 11.9328 5.09689 11.7984C4.9587 11.664 4.88937 11.4979 4.88889 11.3C4.88841 11.1021 4.95774 10.936 5.09689 10.8016C5.23604 10.6672 5.40744 10.6 5.61111 10.6H14.2778C14.4824 10.6 14.6541 10.6672 14.7927 10.8016C14.9314 10.936 15.0005 11.1021 15 11.3C14.9995 11.4979 14.9302 11.6642 14.792 11.7991C14.6538 11.934 14.4824 12.0009 14.2778 12H5.61111Z" fill="#F7F3F0"/>
<path d="M2.72222 12C2.51759 12 2.34619 11.9328 2.208 11.7984C2.06982 11.664 2.00048 11.4979 2 11.3C1.99952 11.1021 2.06885 10.936 2.208 10.8016C2.34715 10.6672 2.51856 10.6 2.72222 10.6C2.92589 10.6 3.09754 10.6672 3.23717 10.8016C3.3768 10.936 3.44589 11.1021 3.44445 11.3C3.443 11.4979 3.37367 11.6642 3.23645 11.7991C3.09922 11.934 2.92782 12.0009 2.72222 12Z" fill="#F7F3F0"/>
</svg>
