<svg width="18" height="14" viewBox="0 0 18 14" fill="none" xmlns="http://www.w3.org/2000/svg">
<path d="M15.2414 0H2C0.895431 0 0 0.89543 0 2V11.7193C0 12.8239 0.895429 13.7193 2 13.7193H15.2414C16.3459 13.7193 17.2414 12.8239 17.2414 11.7193V2C17.2414 0.895431 16.3459 0 15.2414 0Z" fill="#15144E"/>
<path d="M0 4H17.2562H17H0Z" stroke="#F6F4F7"/>
<path d="M8.43181 6.1626H1.72473C1.60318 6.1626 1.50464 6.26114 1.50464 6.38269C1.50464 6.50425 1.60318 6.60278 1.72473 6.60278H8.43181C8.55337 6.60278 8.65191 6.50425 8.65191 6.38269C8.65191 6.26114 8.55337 6.1626 8.43181 6.1626Z" stroke="#F6F4F7"/>
<path d="M2 2L-nan -nanM2 2H1L-nan -nanL-nan -nanL-nan -nanM2 2L-nan -nanL-nan -nanM2 2L-nan -nan" stroke="#F6F4F7"/>
<path d="M4 2L-nan -nanM4 2H3L-nan -nanL-nan -nanL-nan -nanM4 2L-nan -nanL-nan -nanM4 2L-nan -nan" stroke="#F6F4F7"/>
<path d="M6 2L-nan -nanM6 2H5L-nan -nanL-nan -nanL-nan -nanM6 2L-nan -nanL-nan -nanM6 2L-nan -nan" stroke="#F6F4F7"/>
<path d="M7.67947 8.80371H1.72473C1.60318 8.80371 1.50464 8.90225 1.50464 9.0238C1.50464 9.14536 1.60318 9.2439 1.72473 9.2439H7.67947C7.80102 9.2439 7.89956 9.14536 7.89956 9.0238C7.89956 8.90225 7.80102 8.80371 7.67947 8.80371Z" stroke="#F6F4F7"/>
</svg>
