<svg width="20" height="20" viewBox="0 0 20 20" fill="none" xmlns="http://www.w3.org/2000/svg">
<path d="M3.73047 4.06252H16.2305C16.3765 4.06248 16.5224 4.07174 16.6672 4.09025C16.6181 3.74563 16.4997 3.41452 16.3192 3.11689C16.1387 2.81925 15.8998 2.56126 15.6168 2.35846C15.3339 2.15565 15.0129 2.01225 14.673 1.93688C14.3332 1.86152 13.9816 1.85575 13.6395 1.91994L3.35938 3.67502H3.34766C2.70237 3.79841 2.12854 4.1635 1.74336 4.69572C2.32367 4.28296 3.01834 4.0616 3.73047 4.06252ZM16.2305 5.00002H3.73047C3.06765 5.00074 2.43219 5.26436 1.9635 5.73305C1.49482 6.20173 1.23119 6.8372 1.23047 7.50002V15C1.23119 15.6628 1.49482 16.2983 1.9635 16.767C2.43219 17.2357 3.06765 17.4993 3.73047 17.5H16.2305C16.8933 17.4993 17.5288 17.2357 17.9974 16.767C18.4661 16.2983 18.7297 15.6628 18.7305 15V7.50002C18.7297 6.8372 18.4661 6.20173 17.9974 5.73305C17.5288 5.26436 16.8933 5.00074 16.2305 5.00002ZM14.375 12.5C14.1278 12.5 13.8861 12.4267 13.6805 12.2894C13.475 12.152 13.3148 11.9568 13.2201 11.7284C13.1255 11.5 13.1008 11.2486 13.149 11.0062C13.1972 10.7637 13.3163 10.5409 13.4911 10.3661C13.6659 10.1913 13.8887 10.0723 14.1311 10.024C14.3736 9.9758 14.6249 10.0006 14.8534 10.0952C15.0818 10.1898 15.277 10.35 15.4143 10.5556C15.5517 10.7611 15.625 11.0028 15.625 11.25C15.625 11.5815 15.4933 11.8995 15.2589 12.1339C15.0245 12.3683 14.7065 12.5 14.375 12.5Z" fill="#15144E"/>
<path d="M1.25 10.1367V6.25C1.25 5.40352 1.71875 3.98437 3.3457 3.67695C4.72656 3.41797 6.09375 3.41797 6.09375 3.41797C6.09375 3.41797 6.99219 4.04297 6.25 4.04297C5.50781 4.04297 5.52734 5 6.25 5C6.97266 5 6.25 5.91797 6.25 5.91797L3.33984 9.21875L1.25 10.1367Z" fill="#15144E"/>
<path d="M5 9C2.23884 9 0 11.2388 0 14C0 16.7612 2.23884 19 5 19C7.76116 19 10 16.7612 10 14C10 11.2388 7.76116 9 5 9Z" fill="#F6F4F5"/>
<path d="M5.74504 10.7663C5.50155 10.712 5.25307 10.6831 5.00361 10.6802C4.74835 10.6832 4.49899 10.7119 4.25553 10.7663C4.2035 10.7778 4.1564 10.8053 4.12086 10.845C4.08532 10.8848 4.06314 10.9346 4.05745 10.9876L3.99963 11.5069C3.99134 11.5801 3.96602 11.6504 3.9257 11.7121C3.88538 11.7738 3.83117 11.8252 3.76742 11.8622C3.70366 11.8992 3.63214 11.9208 3.55856 11.9252C3.48498 11.9296 3.41139 11.9167 3.34368 11.8876L2.86784 11.6781C2.81954 11.6569 2.76582 11.6511 2.71413 11.6617C2.66243 11.6724 2.61531 11.6988 2.57929 11.7373C2.23515 12.1056 1.97892 12.547 1.82983 13.0285C1.81396 13.0792 1.81433 13.1335 1.8309 13.184C1.84747 13.2344 1.8794 13.2784 1.92223 13.3098L2.34468 13.6211C2.40416 13.6648 2.45251 13.7218 2.48584 13.7877C2.51917 13.8535 2.53653 13.9263 2.53653 14.0001C2.53653 14.0739 2.51917 14.1466 2.48584 14.2125C2.45251 14.2783 2.40416 14.3354 2.34468 14.3791L1.92223 14.6912C1.87946 14.7225 1.84756 14.7665 1.83099 14.8169C1.81442 14.8673 1.81402 14.9216 1.82983 14.9722C1.97892 15.454 2.23493 15.8958 2.57873 16.2648C2.61472 16.3034 2.66183 16.3299 2.71353 16.3405C2.76522 16.3512 2.81896 16.3455 2.86728 16.3243L3.34534 16.1143C3.41268 16.085 3.48594 16.0719 3.55925 16.0761C3.63256 16.0802 3.70389 16.1014 3.76752 16.1381C3.89644 16.2128 3.98248 16.3442 3.99935 16.4925L4.0569 17.0117C4.06256 17.064 4.08427 17.1132 4.11905 17.1527C4.15382 17.1921 4.19995 17.2198 4.25111 17.232C4.74342 17.349 5.25632 17.349 5.74864 17.232C5.79979 17.2198 5.84592 17.1921 5.8807 17.1527C5.91547 17.1132 5.93719 17.064 5.94285 17.0117L6.00039 16.4916C6.0082 16.4183 6.03319 16.3479 6.07334 16.2861C6.11348 16.2243 6.16765 16.1728 6.23143 16.1359C6.29521 16.099 6.36681 16.0776 6.44041 16.0736C6.514 16.0695 6.58751 16.0829 6.65496 16.1126L7.13274 16.3226C7.18106 16.3438 7.2348 16.3495 7.28649 16.3389C7.33819 16.3282 7.3853 16.3017 7.42129 16.2631C7.76491 15.8946 8.02091 15.4532 8.17019 14.972C8.18606 14.9213 8.18569 14.8669 8.16912 14.8165C8.15255 14.766 8.12062 14.722 8.07779 14.6906L7.65589 14.3791C7.5964 14.3354 7.54803 14.2784 7.51467 14.2125C7.48132 14.1467 7.46393 14.074 7.4639 14.0002C7.46387 13.9264 7.48121 13.8536 7.51452 13.7877C7.54782 13.7219 7.59616 13.6648 7.65561 13.6211L8.07751 13.3093C8.12024 13.2779 8.15208 13.2339 8.1686 13.1835C8.18511 13.1331 8.18548 13.0788 8.16964 13.0282C8.02063 12.5468 7.76449 12.1053 7.42046 11.7371C7.38443 11.6985 7.33731 11.6721 7.28562 11.6615C7.23392 11.6509 7.18021 11.6566 7.13191 11.6779L6.65606 11.8873C6.59677 11.9134 6.53272 11.9269 6.46794 11.9271C6.35203 11.927 6.24026 11.884 6.15407 11.8065C6.06788 11.729 6.01335 11.6224 6.00095 11.5072L5.94285 10.9873C5.93714 10.9345 5.91501 10.8847 5.87958 10.8451C5.84416 10.8054 5.79693 10.7779 5.74504 10.7663ZM5.00001 15.1067C4.70652 15.1067 4.42504 14.9901 4.21751 14.7826C4.00998 14.5751 3.89339 14.2936 3.89339 14.0001C3.89339 13.7066 4.00998 13.4251 4.21751 13.2176C4.42504 13.0101 4.70652 12.8935 5.00001 12.8935C5.2935 12.8935 5.57498 13.0101 5.78251 13.2176C5.99004 13.4251 6.10663 13.7066 6.10663 14.0001C6.10663 14.2936 5.99004 14.5751 5.78251 14.7826C5.57498 14.9901 5.2935 15.1067 5.00001 15.1067Z" fill="#15144E"/>
</svg>
