<svg width="18" height="14" viewBox="0 0 18 14" fill="none" xmlns="http://www.w3.org/2000/svg">
<path d="M16 0H2C0.895431 0 0 0.89543 0 2V12C0 13.1046 0.89543 14 2 14H9H16C17.1046 14 18 13.1046 18 12V2C18 0.895431 17.1046 0 16 0Z" fill="#15144E"/>
<path d="M14.2208 5.15318C14.2208 4.84912 14.1201 4.60516 13.9187 4.42131C13.7174 4.23746 13.4503 4.14554 13.1177 4.14554C12.9126 4.14554 12.7271 4.1898 12.5611 4.27833C12.395 4.36686 12.2518 4.49584 12.1313 4.66527C12.0181 4.82791 11.8643 4.92167 11.6697 4.94656C11.4751 4.97145 11.3072 4.92012 11.1661 4.79255C11.0671 4.70063 11.0123 4.58749 11.0019 4.45313C10.9914 4.31878 11.0249 4.1915 11.1024 4.07129C11.3287 3.73187 11.6169 3.46854 11.9671 3.28129C12.3173 3.09405 12.7008 3.00028 13.1177 3C13.8036 3 14.3605 3.19446 14.7885 3.58337C15.2164 3.97229 15.4303 4.48142 15.43 5.11076C15.43 5.42896 15.3628 5.71534 15.2285 5.96991C15.0941 6.22447 14.8466 6.525 14.486 6.87149C14.2244 7.11898 14.0476 7.31174 13.9557 7.44977C13.8637 7.5878 13.8036 7.74506 13.7753 7.92156C13.7471 8.09127 13.6745 8.23269 13.5577 8.34583C13.4409 8.45897 13.3013 8.51554 13.1389 8.51554C12.9766 8.51554 12.837 8.46081 12.7202 8.35135C12.6034 8.24189 12.5449 8.10569 12.5449 7.94277C12.5449 7.667 12.6051 7.41427 12.7253 7.1846C12.8455 6.95493 13.047 6.71267 13.3299 6.45782C13.6905 6.13962 13.9292 5.89396 14.046 5.72086C14.1628 5.54776 14.2211 5.35853 14.2208 5.15318ZM13.1177 11.0612C12.8844 11.0612 12.6847 10.9782 12.5186 10.8121C12.3526 10.6461 12.2695 10.4463 12.2692 10.2126C12.2689 9.979 12.352 9.77931 12.5186 9.61356C12.6852 9.44781 12.8849 9.36465 13.1177 9.36409C13.3505 9.36352 13.5503 9.44668 13.7172 9.61356C13.8841 9.78044 13.9671 9.98013 13.9663 10.2126C13.9654 10.4451 13.8824 10.645 13.7172 10.8121C13.552 10.9793 13.3522 11.0623 13.1177 11.0612Z" fill="#F7F4F1"/>
<path d="M8.27991 4H2.22009C2.09854 4 2 4.09854 2 4.22009C2 4.34165 2.09854 4.44019 2.22009 4.44019H8.27991C8.40146 4.44019 8.5 4.34165 8.5 4.22009C8.5 4.09854 8.40146 4 8.27991 4Z" stroke="#F6F4F7"/>
<path d="M8.17483 6.64111H2.22009C2.09854 6.64111 2 6.73965 2 6.86121C2 6.98276 2.09854 7.0813 2.22009 7.0813H8.17483C8.29638 7.0813 8.39492 6.98276 8.39492 6.86121C8.39492 6.73965 8.29638 6.64111 8.17483 6.64111Z" stroke="#F6F4F7"/>
<path d="M8.17483 9.64111H2.22009C2.09854 9.64111 2 9.73965 2 9.86121C2 9.98276 2.09854 10.0813 2.22009 10.0813H8.17483C8.29638 10.0813 8.39492 9.98276 8.39492 9.86121C8.39492 9.73965 8.29638 9.64111 8.17483 9.64111Z" stroke="#F6F4F7"/>
</svg>
