<svg width="13" height="15" viewBox="0 0 13 15" fill="none" xmlns="http://www.w3.org/2000/svg">
<path d="M6.02017 9.32003H11.8981C12.3001 9.32003 12.6253 9.62967 12.6253 10.0114V11.0066C12.626 11.0968 12.6077 11.1862 12.5715 11.2697C12.5352 11.3533 12.4819 11.4293 12.4143 11.4935C12.3468 11.5577 12.2664 11.6088 12.1779 11.6439C12.0893 11.679 11.9942 11.6973 11.8981 11.6979L8.42504 11.6439L4.95751 11.6979H4.53509C4.19187 11.6979 3.89005 11.4783 3.80124 11.1586L3.10777 9.21644L0.651069 1.54419C0.625608 1.45671 0.619068 1.36533 0.631833 1.27544C0.644598 1.18555 0.67641 1.09897 0.725395 1.0208C0.77438 0.942625 0.839547 0.874441 0.917055 0.820266C0.994563 0.76609 1.08284 0.727018 1.1767 0.705353L2.66298 0.337166C2.8518 0.288893 3.05332 0.312958 3.22323 0.404068C3.39314 0.495178 3.51752 0.645873 3.56903 0.823015L3.65064 1.10394L4.64249 2.55079L4.54829 4.20595L5.99857 9.21644C6.00897 9.25135 6.01617 9.28588 6.02017 9.32003Z" fill="#E5BC3B"/>
<path d="M5 12C4.44772 12 4 12.4477 4 13V14C4 14.5523 4.44772 15 5 15H11.5C12.0523 15 12.5 14.5523 12.5 14V13C12.5 12.4477 12.0523 12 11.5 12H5Z" fill="#E5BC3B"/>
<path d="M5.41244 3.57825L4.7734 1.1704C4.7194 0.956468 4.50218 0.830361 4.29097 0.890599L4.15057 0.928881L3.64114 1.064L4.55319 4.22905L4.99001 4.11083L5.13042 4.07198C5.34223 4.01174 5.46644 3.79218 5.41244 3.57825ZM9.92529 8.1941H3.92495C3.42692 8.1941 3.0249 7.8169 3.0249 7.34963C3.0249 6.88236 3.42692 6.50517 3.92495 6.50517H9.92529C10.4233 6.50517 10.8253 6.88236 10.8253 7.34963C10.8253 7.8169 10.4233 8.1941 9.92529 8.1941Z" fill="#E5BC3B"/>
</svg>
