<svg width="30" height="23" viewBox="0 0 30 23" fill="none" xmlns="http://www.w3.org/2000/svg">
<path d="M23.8621 0H2C0.895431 0 0 0.895428 0 2V18.5789C0 19.6835 0.89543 20.5789 2 20.5789H23.8621C24.9666 20.5789 25.8621 19.6835 25.8621 18.579V2C25.8621 0.895431 24.9666 0 23.8621 0Z" fill="#86C9FF"/>
<path d="M17.1618 5.28229H2.58716C2.40483 5.28229 2.25702 5.4301 2.25702 5.61243C2.25702 5.79476 2.40483 5.94257 2.58716 5.94257H17.1618C17.3442 5.94257 17.492 5.79476 17.492 5.61243C17.492 5.4301 17.3442 5.28229 17.1618 5.28229Z" stroke="#EDF7FF"/>
<path d="M12.6478 9.24396H2.58716C2.40483 9.24396 2.25702 9.39177 2.25702 9.5741C2.25702 9.75643 2.40483 9.90424 2.58716 9.90424H12.6478C12.8301 9.90424 12.9779 9.75643 12.9779 9.5741C12.9779 9.39177 12.8301 9.24396 12.6478 9.24396Z" stroke="#EDF7FF"/>
<path d="M11.5193 13.2056H2.58716C2.40483 13.2056 2.25702 13.3534 2.25702 13.5358C2.25702 13.7181 2.40483 13.8659 2.58716 13.8659H11.5193C11.7016 13.8659 11.8494 13.7181 11.8494 13.5358C11.8494 13.3534 11.7016 13.2056 11.5193 13.2056Z" stroke="#EDF7FF"/>
<path d="M20.432 8.3479C21.1848 8.04083 22.0356 8.04097 22.7885 8.3479V8.34888L26.684 9.9436H26.6849C26.8399 10.0069 27.0109 10.1486 27.1449 10.3469C27.2454 10.4957 27.3082 10.6512 27.3334 10.7893L27.3461 10.9211L27.3392 13.9905V13.9915C27.3392 17.0791 25.1568 20.0025 22.1263 20.9817L21.8324 21.0696C21.6877 21.109 21.5259 21.109 21.3812 21.0696C18.1992 20.1893 15.8754 17.1779 15.8754 13.9915V10.9211C15.8754 10.7539 15.942 10.5432 16.0746 10.3459C16.2072 10.1488 16.3773 10.0079 16.5345 9.94458L16.5365 9.9436L20.432 8.3479Z" fill="#86C9FF" stroke="#EDF7FF"/>
<path d="M23.3557 13.558C23.3557 12.5928 22.5723 11.8095 21.6072 11.8095C20.642 11.8095 19.8586 12.5928 19.8586 13.558C19.8586 14.3414 20.3762 14.9918 21.0826 15.2156V17.055C21.0826 17.3418 21.3204 17.5796 21.6072 17.5796C21.8939 17.5796 22.1317 17.3418 22.1317 17.055V15.2156C22.8381 14.9918 23.3557 14.3414 23.3557 13.558Z" fill="#EDF7FF"/>
</svg>
