<svg width="19" height="18" viewBox="0 0 19 18" fill="none" xmlns="http://www.w3.org/2000/svg">
<path d="M17 1.125H3C1.89543 1.125 1 2.02043 1 3.125V14.875C1 15.9796 1.89543 16.875 3 16.875H10H17C18.1046 16.875 19 15.9796 19 14.875V3.125C19 2.02043 18.1046 1.125 17 1.125Z" fill="#15144E"/>
<g clip-path="url(#clip0_581_251)">
<path d="M14.6475 12.7411C14.5746 13.1181 14.4719 13.4531 14.3488 13.7303C14.2219 14.0155 14.0809 14.2227 13.9438 14.353C13.8088 14.4813 13.696 14.5199 13.6083 14.5199C13.5206 14.5199 13.4079 14.4816 13.2728 14.3529C13.1358 14.2227 12.9947 14.0157 12.868 13.7303C12.7447 13.4531 12.6422 13.1181 12.5692 12.7411H14.6475ZM15.041 12.7411C14.9134 13.4445 14.6863 14.0327 14.3992 14.4179C15.2905 14.1829 16.0243 13.5602 16.4094 12.7411H15.041ZM16.5602 12.3544H15.0996C15.1358 12.059 15.1551 11.7478 15.1551 11.4264C15.1551 11.1329 15.139 10.8479 15.1087 10.5756H16.5834C16.6623 10.8523 16.7022 11.1386 16.7019 11.4264C16.7019 11.7496 16.6524 12.0615 16.5602 12.3544ZM14.7098 12.3544H12.5068C12.4675 12.0466 12.4479 11.7366 12.4482 11.4264C12.4479 11.1421 12.4643 10.858 12.4973 10.5756H14.7194C14.7523 10.858 14.7687 11.1421 14.7684 11.4264C14.7686 11.7367 14.7492 12.0466 14.7098 12.3544ZM12.1172 12.3544C12.0797 12.0465 12.0611 11.7366 12.0615 11.4264C12.0615 11.1329 12.0776 10.8479 12.1079 10.5756H10.6334C10.5544 10.8523 10.5145 11.1386 10.5147 11.4264C10.5147 11.7496 10.5642 12.0615 10.6564 12.3544H12.1172ZM10.8071 12.7411C11.1922 13.5602 11.9262 14.1829 12.8174 14.4179C12.5304 14.0327 12.3033 13.4445 12.1757 12.7411H10.8071ZM14.3489 9.1224C14.4804 9.41846 14.5887 9.78041 14.6621 10.1889H12.5546C12.6283 9.78056 12.7364 9.41846 12.868 9.1224C12.9949 8.83717 13.1358 8.63006 13.2728 8.49966C13.4079 8.37143 13.5206 8.33276 13.6083 8.33276C13.696 8.33276 13.8088 8.37112 13.9438 8.49982C14.0809 8.63006 14.2219 8.83702 14.3486 9.1224M15.0544 10.1889H16.4445C16.07 9.33184 15.3183 8.67708 14.3992 8.43485C14.6968 8.83393 14.9297 9.45141 15.0544 10.1889ZM10.7721 10.1889H12.1622C12.2869 9.45141 12.5198 8.83393 12.8174 8.43485C11.8983 8.67708 11.1466 9.33184 10.7721 10.1889Z" fill="#F7F4F0"/>
</g>
<path d="M8.5 0H1C0.447715 0 0 0.447715 0 1V8C0 8.55229 0.447715 9 1 9H8.5C9.05229 9 9.5 8.55229 9.5 8V1C9.5 0.447715 9.05228 0 8.5 0Z" fill="#F6F4F4"/>
<path d="M1.85593 5.15625L3.53531 6.83562L6.89407 3.47687" stroke="#15144E" stroke-width="1.5" stroke-linecap="round" stroke-linejoin="round"/>
<defs>
<clipPath id="clip0_581_251">
<rect width="7.42462" height="7.42462" fill="white" transform="translate(9.45406 7.27209)"/>
</clipPath>
</defs>
</svg>
