<svg width="24" height="24" viewBox="0 0 24 24" fill="none" xmlns="http://www.w3.org/2000/svg">
<path d="M12 5.25C12.45 5.25 12.75 4.95 12.75 4.5V2.25C12.75 1.8 12.45 1.5 12 1.5C11.55 1.5 11.25 1.8 11.25 2.25V4.5C11.25 4.95 11.55 5.25 12 5.25Z" fill="#E5BC3B"/>
<path d="M6.1501 7.20001C6.3001 7.35001 6.5251 7.42501 6.6751 7.42501C6.8251 7.42501 7.0501 7.35001 7.2001 7.20001C7.5001 6.90001 7.5001 6.45001 7.2001 6.15001L5.6251 4.57501C5.3251 4.27501 4.8751 4.27501 4.5751 4.57501C4.2751 4.87501 4.2751 5.32501 4.5751 5.62501L6.1501 7.20001Z" fill="#E5BC3B"/>
<path d="M2.25 12.75H4.5C4.95 12.75 5.25 12.45 5.25 12C5.25 11.55 4.95 11.25 4.5 11.25H2.25C1.8 11.25 1.5 11.55 1.5 12C1.5 12.45 1.8 12.75 2.25 12.75Z" fill="#E5BC3B"/>
<path d="M18.75 12C18.75 12.45 19.05 12.75 19.5 12.75H21.75C22.2 12.75 22.5 12.45 22.5 12C22.5 11.55 22.2 11.25 21.75 11.25H19.5C19.05 11.25 18.75 11.55 18.75 12Z" fill="#E5BC3B"/>
<path d="M17.325 7.42501C17.55 7.42501 17.7 7.35001 17.85 7.20001L19.425 5.62501C19.725 5.32501 19.725 4.87501 19.425 4.57501C19.125 4.27501 18.675 4.27501 18.375 4.57501L16.8 6.15001C16.5 6.45001 16.5 6.90001 16.8 7.20001C16.95 7.35001 17.1 7.42501 17.325 7.42501Z" fill="#E5BC3B"/>
<path d="M6.6 14.55C6.675 14.85 6.975 15 7.275 15H16.725C17.025 15 17.25 14.85 17.4 14.55C17.775 13.725 18 12.9 18 12C18 8.7 15.3 6 12 6C8.7 6 6 8.7 6 12C6 12.9 6.225 13.725 6.6 14.55Z" fill="#E5BC3B"/>
<path d="M21.75 16.5H2.25C1.8 16.5 1.5 16.8 1.5 17.25C1.5 17.7 1.8 18 2.25 18H21.75C22.2 18 22.5 17.7 22.5 17.25C22.5 16.8 22.2 16.5 21.75 16.5Z" fill="#E5BC3B"/>
<path d="M14.25 19.5H5.25C4.8 19.5 4.5 19.8 4.5 20.25C4.5 20.7 4.8 21 5.25 21H14.25C14.7 21 15 20.7 15 20.25C15 19.8 14.7 19.5 14.25 19.5Z" fill="#E5BC3B"/>
<path d="M18.75 19.5H17.25C16.8 19.5 16.5 19.8 16.5 20.25C16.5 20.7 16.8 21 17.25 21H18.75C19.2 21 19.5 20.7 19.5 20.25C19.5 19.8 19.2 19.5 18.75 19.5Z" fill="#E5BC3B"/>
</svg>
