<svg width="22" height="25" viewBox="0 0 22 25" fill="none" xmlns="http://www.w3.org/2000/svg">
<path opacity="0.15" d="M0 23.3455C0 23.559 0.711159 23.7638 1.97703 23.9148C3.2429 24.0658 4.95979 24.1506 6.75 24.1506C8.54021 24.1506 10.2571 24.0658 11.523 23.9148C12.7888 23.7638 13.5 23.559 13.5 23.3455C13.5 23.132 12.7888 22.9273 11.523 22.7763C10.2571 22.6253 8.54021 22.5405 6.75 22.5405C4.95979 22.5405 3.2429 22.6253 1.97703 22.7763C0.711159 22.9273 0 23.132 0 23.3455Z" fill="#F7F3EE"/>
<path d="M10.52 16.5512L6.75 15.027L2.98 16.5673C2.34073 16.8291 1.79054 17.2931 1.40218 17.8977C1.01383 18.5024 0.805589 19.2193 0.805 19.9538V23.0772H12.695V19.9377C12.6944 19.2032 12.4862 18.4863 12.0978 17.8816C11.7095 17.277 11.1593 16.813 10.52 16.5512Z" fill="#15144E"/>
<path d="M3.28 23.0772V21.7838M10.22 23.0772V21.7838" stroke="#F7F3EE" stroke-width="0.5" stroke-linecap="round" stroke-linejoin="round"/>
<path d="M10.52 16.5512L6.75 15.027L2.98 16.5673C2.34073 16.8291 1.79054 17.2931 1.40218 17.8977C1.01383 18.5024 0.805589 19.2193 0.805 19.9538V21.5638C0.805589 20.8294 1.01383 20.1124 1.40218 19.5078C1.79054 18.9031 2.34073 18.4392 2.98 18.1773L6.75 16.6371L10.52 18.1773C11.1593 18.4392 11.7095 18.9031 12.0978 19.5078C12.4862 20.1124 12.6944 20.8294 12.695 21.5638V19.9538C12.6975 19.2166 12.4906 18.4961 12.1021 17.8882C11.7135 17.2804 11.1617 16.814 10.52 16.5512Z" fill="#15144E"/>
<path d="M10.52 16.5512L6.75 15.027L2.98 16.5673C2.34073 16.8291 1.79054 17.2931 1.40218 17.8977C1.01383 18.5024 0.805589 19.2193 0.805 19.9538V23.0772H12.695V19.9377C12.6944 19.2032 12.4862 18.4863 12.0978 17.8816C11.7095 17.277 11.1593 16.813 10.52 16.5512Z" stroke="#F7F3EE" stroke-width="0.5" stroke-linecap="round" stroke-linejoin="round"/>
<path d="M6.75 15.027C6.75 15.027 4.25 15.027 4.25 16.5405C4.29536 17.6694 4.67353 18.7537 5.33 19.6371L6.75 18.333L8.195 19.6371C8.85147 18.7537 9.22964 17.6694 9.275 16.5405C9.275 15.027 6.75 15.027 6.75 15.027Z" fill="#15144E" stroke="#F7F3EE" stroke-width="0.5" stroke-linecap="round" stroke-linejoin="round"/>
<path d="M6.75 13.5082C6.5828 13.5082 6.41724 13.5437 6.26283 13.6125C6.10842 13.6814 5.9682 13.7822 5.8502 13.9094C5.7322 14.0365 5.63876 14.1875 5.57523 14.3535C5.5117 14.5195 5.47934 14.6973 5.48 14.8768V16.4063C5.48 17.1577 6.75 18.333 6.75 18.333C6.75 18.333 8.02 17.1577 8.02 16.4063V14.8768C8.02066 14.6973 7.98829 14.5195 7.92476 14.3535C7.86124 14.1875 7.76779 14.0365 7.6498 13.9094C7.5318 13.7822 7.39157 13.6814 7.23716 13.6125C7.08275 13.5437 6.9172 13.5082 6.75 13.5082Z" fill="#15144E"/>
<path d="M6.75 13.5082C6.41317 13.5082 6.09014 13.6519 5.85197 13.9075C5.6138 14.1631 5.48 14.5099 5.48 14.8714V15.1934C5.48 15.5549 5.6138 15.9017 5.85197 16.1573C6.09014 16.413 6.41317 16.5566 6.75 16.5566C7.08682 16.5566 7.40985 16.413 7.64802 16.1573C7.88619 15.9017 8.02 15.5549 8.02 15.1934V14.8768C8.02065 14.6973 7.98829 14.5195 7.92476 14.3535C7.86123 14.1875 7.76779 14.0365 7.64979 13.9094C7.5318 13.7822 7.39157 13.6814 7.23716 13.6125C7.08275 13.5437 6.9172 13.5082 6.75 13.5082Z" fill="#15144E"/>
<path d="M6.75 13.5082C6.5828 13.5082 6.41724 13.5437 6.26283 13.6125C6.10842 13.6814 5.9682 13.7822 5.8502 13.9094C5.7322 14.0365 5.63876 14.1875 5.57523 14.3535C5.5117 14.5195 5.47934 14.6973 5.48 14.8768V16.4063C5.48 17.1577 6.75 18.333 6.75 18.333C6.75 18.333 8.02 17.1577 8.02 16.4063V14.8768C8.02066 14.6973 7.98829 14.5195 7.92476 14.3535C7.86124 14.1875 7.76779 14.0365 7.6498 13.9094C7.5318 13.7822 7.39157 13.6814 7.23716 13.6125C7.08275 13.5437 6.9172 13.5082 6.75 13.5082Z" stroke="#F7F3EE" stroke-width="0.5" stroke-linecap="round" stroke-linejoin="round"/>
<path d="M6.75 2.63513C6.33844 2.63537 5.92854 2.69127 5.53 2.8015C4.6 3.02691 3.39 3.40258 2.295 3.17718C2.25234 3.47989 2.26757 3.78877 2.33978 4.08495C2.41199 4.38114 2.53966 4.65843 2.715 4.89992C2.14424 5.7823 1.83888 6.83111 1.84 7.90532V10.6638H11.66V7.90532C11.66 6.50758 11.1427 5.16709 10.2219 4.17873C9.30109 3.19038 8.05221 2.63513 6.75 2.63513Z" fill="#15144E"/>
<path d="M6.75 2.63513C6.33844 2.63537 5.92855 2.69127 5.53 2.8015C4.6 3.02691 3.39 3.40258 2.295 3.17718C2.22731 3.74013 2.34778 4.31061 2.635 4.78721C3.61441 4.80359 4.59048 4.66065 5.53 4.36324C6.25521 4.16247 7.01362 4.14262 7.74708 4.30521C8.48054 4.46781 9.16957 4.80852 9.76135 5.30123C10.3531 5.79394 10.8319 6.42556 11.161 7.14766C11.4901 7.86976 11.6608 8.66317 11.66 9.46705V7.90532C11.66 6.50758 11.1427 5.16708 10.2219 4.17873C9.30109 3.19038 8.05222 2.63513 6.75 2.63513Z" fill="#15144E"/>
<path d="M6.75 2.63513C6.33844 2.63537 5.92854 2.69127 5.53 2.8015C4.6 3.02691 3.39 3.40258 2.295 3.17718C2.25234 3.47989 2.26757 3.78877 2.33978 4.08495C2.41199 4.38114 2.53966 4.65843 2.715 4.89992C2.14424 5.7823 1.83888 6.83111 1.84 7.90532V10.6638H11.66V7.90532C11.66 6.50758 11.1427 5.16709 10.2219 4.17873C9.30109 3.19038 8.05221 2.63513 6.75 2.63513Z" stroke="#F7F3EE" stroke-width="0.5" stroke-linecap="round" stroke-linejoin="round"/>
<path d="M12.185 10.2613C12.1607 10.0642 12.0812 9.87969 11.9572 9.73212C11.8331 9.58454 11.6702 9.48087 11.49 9.43479L11.195 9.34892C10.9776 9.28303 10.7865 9.14227 10.651 8.94832C10.5154 8.75437 10.4431 8.51799 10.445 8.27556V7.18074C10.4445 6.95942 10.3761 6.74444 10.2505 6.5689C10.1249 6.39337 9.94907 6.26703 9.75 6.20935C8.7967 6.61844 7.77644 6.81739 6.75 6.79433C5.72356 6.81739 4.7033 6.61844 3.75 6.20935C3.55001 6.26604 3.37301 6.39195 3.24646 6.56757C3.1199 6.74319 3.05085 6.95872 3.05 7.18074V8.2863C3.05193 8.52872 2.97956 8.76511 2.84404 8.95905C2.70852 9.153 2.51736 9.29376 2.3 9.35966L2.005 9.44552C1.82484 9.4916 1.66195 9.59528 1.53785 9.74285C1.41376 9.89042 1.33431 10.0749 1.31 10.272C1.29664 10.4079 1.31013 10.5452 1.34958 10.6751C1.38904 10.805 1.45358 10.9245 1.53899 11.0258C1.6244 11.1271 1.72875 11.2079 1.84524 11.263C1.96172 11.3181 2.08772 11.3461 2.215 11.3454H2.27C2.387 12.5317 2.9089 13.6297 3.73515 14.4276C4.5614 15.2255 5.63354 15.667 6.745 15.667C7.85646 15.667 8.9286 15.2255 9.75486 14.4276C10.5811 13.6297 11.103 12.5317 11.22 11.3454H11.275C11.4036 11.3471 11.5311 11.3193 11.649 11.2639C11.7669 11.2086 11.8724 11.1269 11.9585 11.0243C12.0446 10.9217 12.1093 10.8006 12.1484 10.669C12.1875 10.5374 12.1999 10.3984 12.185 10.2613Z" fill="#15144E" stroke="#F7F3EE" stroke-width="0.5" stroke-linecap="round" stroke-linejoin="round"/>
<path d="M19.75 0C20.2804 0 20.7891 0.226171 21.1642 0.628758C21.5393 1.03135 21.75 1.57737 21.75 2.14672V6.44015C21.75 7.00949 21.5393 7.55552 21.1642 7.9581C20.7891 8.36069 20.2804 8.58686 19.75 8.58686H17.388L15.007 10.1202C14.9353 10.1663 14.8539 10.1925 14.7704 10.1962C14.6868 10.1999 14.6037 10.1811 14.5287 10.1414C14.4537 10.1017 14.3892 10.0425 14.341 9.96912C14.2928 9.89574 14.2626 9.81057 14.253 9.7214L14.25 9.66022V8.58686H13.75C13.2369 8.58686 12.7434 8.37518 12.3716 7.99559C11.9998 7.616 11.7782 7.09756 11.7525 6.54748L11.75 6.44015V2.14672C11.75 1.57737 11.9607 1.03135 12.3358 0.628758C12.7109 0.226171 13.2196 0 13.75 0H19.75ZM17.75 4.83011H14.75C14.6174 4.83011 14.4902 4.88665 14.3964 4.9873C14.3027 5.08795 14.25 5.22445 14.25 5.36679C14.25 5.50912 14.3027 5.64563 14.3964 5.74628C14.4902 5.84692 14.6174 5.90347 14.75 5.90347H17.75C17.8826 5.90347 18.0098 5.84692 18.1036 5.74628C18.1973 5.64563 18.25 5.50912 18.25 5.36679C18.25 5.22445 18.1973 5.08795 18.1036 4.9873C18.0098 4.88665 17.8826 4.83011 17.75 4.83011ZM18.75 2.68339H14.75C14.6174 2.68339 14.4902 2.73994 14.3964 2.84058C14.3027 2.94123 14.25 3.07774 14.25 3.22007C14.25 3.36241 14.3027 3.49892 14.3964 3.59956C14.4902 3.70021 14.6174 3.75675 14.75 3.75675H18.75C18.8826 3.75675 19.0098 3.70021 19.1036 3.59956C19.1973 3.49892 19.25 3.36241 19.25 3.22007C19.25 3.07774 19.1973 2.94123 19.1036 2.84058C19.0098 2.73994 18.8826 2.68339 18.75 2.68339Z" fill="#15144E"/>
</svg>
