<svg width="48" height="35" viewBox="0 0 48 35" fill="none" xmlns="http://www.w3.org/2000/svg">
<path d="M46 0H2C0.895431 0 0 0.895429 0 2V32.4615C0 33.5661 0.89543 34.4615 2 34.4615H24H46C47.1046 34.4615 48 33.5661 48 32.4615V2C48 0.89543 47.1046 0 46 0Z" fill="#E5BC3B"/>
<path d="M18.0769 18.4616L4.07694 18.4615C3.52465 18.4615 3.07693 18.9093 3.07693 19.4615V30.417C3.07693 30.9693 3.52465 31.417 4.07693 31.417L18.0769 31.417C18.6292 31.417 19.0769 30.9693 19.0769 30.417V19.4616C19.0769 18.9093 18.6292 18.4616 18.0769 18.4616Z" fill="white"/>
<path d="M7.00003 25.4615L9.46157 27.9231L14.3846 23" stroke="#E5BC3B" stroke-width="1.5" stroke-linecap="round" stroke-linejoin="round"/>
<path d="M25.4455 4.92307H3.9995C3.82985 4.92307 3.69232 5.06059 3.69232 5.23024C3.69232 5.40029 3.83048 5.53799 4.00053 5.53742L25.4464 5.46574C25.5959 5.46524 25.7168 5.3439 25.7168 5.1944C25.7168 5.04455 25.5954 4.92307 25.4455 4.92307Z" stroke="white"/>
<path d="M21.7531 9.84616H3.9994C3.8298 9.84616 3.69232 9.98364 3.69232 10.1532C3.69232 10.3233 3.83056 10.461 4.00063 10.4603L21.7542 10.389C21.9037 10.3884 22.0245 10.2671 22.0245 10.1176C22.0245 9.96768 21.903 9.84616 21.7531 9.84616Z" stroke="white"/>
<path d="M15.5955 14.7692H4.0025C3.83308 14.7692 3.69232 14.9066 3.69232 15.076C3.69232 15.2461 3.8308 15.3838 4.00094 15.3827L15.6006 15.3126C15.75 15.3117 15.8707 15.1903 15.8707 15.0409C15.8707 14.8909 15.7455 14.7692 15.5955 14.7692Z" stroke="white"/>
<path d="M36.3014 14.7955L44.6405 20.1853L44.6185 22.2839L36.2516 19.5451L36.1927 25.1691L39.3224 26.9509L39.3059 28.5249L34.5949 27.4261L29.862 28.426L29.8785 26.852L33.0448 25.1361L33.1037 19.5121L24.6813 22.0751L24.7033 19.9765L33.1534 14.7625L33.2133 9.04648C33.2224 8.17719 33.9345 7.47987 34.8038 7.48898C35.673 7.49808 36.3704 8.21016 36.3613 9.07945L36.3014 14.7955Z" fill="white"/>
</svg>
