<svg width="12" height="12" viewBox="0 0 12 12" fill="none" xmlns="http://www.w3.org/2000/svg">
<g clip-path="url(#clip0_202_1779)">
<path fill-rule="evenodd" clip-rule="evenodd" d="M4.134 1.39455C4.15387 1.37451 4.1775 1.35859 4.20353 1.34771C4.22957 1.33682 4.2575 1.33119 4.28571 1.33112H7.71429C7.77112 1.33112 7.82562 1.3537 7.86581 1.39389C7.906 1.43407 7.92857 1.48858 7.92857 1.54541V2.57141H4.07143V1.54541C4.07155 1.48884 4.09405 1.43461 4.134 1.39455ZM2.78571 2.57141V1.54541C2.78571 1.14759 2.94375 0.766055 3.22505 0.48475C3.50636 0.203445 3.88789 0.0454102 4.28571 0.0454102H7.71429C8.11211 0.0454102 8.49364 0.203445 8.77495 0.48475C9.05625 0.766055 9.21429 1.14759 9.21429 1.54541V2.57141H10.7143C11.0553 2.57141 11.3823 2.70687 11.6234 2.94799C11.8645 3.18911 12 3.51613 12 3.85712V10.7143C12 11.0553 11.8645 11.3823 11.6234 11.6234C11.3823 11.8645 11.0553 12 10.7143 12H1.28571C0.944722 12 0.617695 11.8645 0.376577 11.6234C0.135459 11.3823 0 11.0553 0 10.7143L0 3.85712C0 3.51613 0.135459 3.18911 0.376577 2.94799C0.617695 2.70687 0.944722 2.57141 1.28571 2.57141H2.78571ZM2.46429 5.63827C2.46429 5.34255 2.70429 5.10255 3 5.10255H9C9.14208 5.10255 9.27834 5.15899 9.37881 5.25946C9.47927 5.35993 9.53571 5.49619 9.53571 5.63827C9.53571 5.78035 9.47927 5.91661 9.37881 6.01708C9.27834 6.11754 9.14208 6.17398 9 6.17398H3C2.85792 6.17398 2.72166 6.11754 2.62119 6.01708C2.52073 5.91661 2.46429 5.78035 2.46429 5.63827ZM3 8.39741C2.92965 8.39741 2.85999 8.41127 2.79499 8.43819C2.73 8.46511 2.67094 8.50457 2.62119 8.55432C2.57145 8.60406 2.53199 8.66312 2.50506 8.72812C2.47814 8.79311 2.46429 8.86277 2.46429 8.93312C2.46429 9.00348 2.47814 9.07314 2.50506 9.13813C2.53199 9.20313 2.57145 9.26219 2.62119 9.31193C2.67094 9.36168 2.73 9.40114 2.79499 9.42806C2.85999 9.45498 2.92965 9.46884 3 9.46884H9C9.07035 9.46884 9.14001 9.45498 9.20501 9.42806C9.27 9.40114 9.32906 9.36168 9.37881 9.31193C9.42855 9.26219 9.46801 9.20313 9.49494 9.13813C9.52186 9.07314 9.53571 9.00348 9.53571 8.93312C9.53571 8.86277 9.52186 8.79311 9.49494 8.72812C9.46801 8.66312 9.42855 8.60406 9.37881 8.55432C9.32906 8.50457 9.27 8.46511 9.20501 8.43819C9.14001 8.41127 9.07035 8.39741 9 8.39741H3Z" fill="#E5BC3B"/>
</g>
<defs>
<clipPath id="clip0_202_1779">
<rect width="12" height="12" fill="white"/>
</clipPath>
</defs>
</svg>
