<svg width="22" height="22" viewBox="0 0 22 22" fill="none" xmlns="http://www.w3.org/2000/svg">
<path d="M6.98133 19.25C6.55906 19.25 6.20675 19.1088 5.92442 18.8265C5.64208 18.5442 5.50061 18.1919 5.5 17.7696V11C5.5 9.81873 5.83122 8.77221 6.49367 7.86043C7.1555 6.94865 7.99944 6.29354 9.0255 5.8951V5.50001C9.0255 4.94757 9.21647 4.48037 9.59842 4.09843C9.98036 3.71649 10.4476 3.52551 11 3.52551C11.5524 3.52551 12.0196 3.71649 12.4016 4.09843C12.7835 4.48037 12.9745 4.94757 12.9745 5.50001V5.89418C14.0006 6.29323 14.8445 6.94865 15.5063 7.86043C16.1688 8.77221 16.5 9.81873 16.5 11V17.7696C16.5 18.1913 16.3588 18.5433 16.0765 18.8256C15.7942 19.1079 15.4416 19.2494 15.0187 19.25H6.98133ZM13.75 14.2083C13.8808 14.2083 13.9899 14.1647 14.0773 14.0773C14.1646 13.9899 14.2083 13.8808 14.2083 13.75V11.4583H7.79167V12.375H13.2917V13.75C13.2917 13.8808 13.3354 13.9899 13.4227 14.0773C13.5101 14.1647 13.6192 14.2083 13.75 14.2083ZM9.94217 5.62743C10.1224 5.58465 10.2988 5.55287 10.4711 5.5321C10.644 5.51071 10.8203 5.50001 11 5.50001C11.1797 5.50001 11.356 5.5104 11.5289 5.53118C11.7019 5.55196 11.8782 5.58404 12.0578 5.62743V5.50001C12.0578 5.20485 11.9552 4.9549 11.7498 4.75018C11.5445 4.54546 11.2946 4.44279 11 4.44218C10.7054 4.44157 10.4555 4.54424 10.2502 4.75018C10.0448 4.95612 9.94217 5.20607 9.94217 5.50001V5.62743Z" fill="#E5BC3B"/>
</svg>
