<svg width="14" height="14" viewBox="0 0 14 14" fill="none" xmlns="http://www.w3.org/2000/svg">
<path d="M6.55901 8.31255H10.8448C11.1379 8.31255 11.375 8.55317 11.375 8.8498V10.4003C11.3755 10.4704 11.3621 10.5399 11.3357 10.6048C11.3093 10.6698 11.2704 10.7289 11.2212 10.7787C11.1719 10.8286 11.1133 10.8683 11.0488 10.8956C10.9842 10.9228 10.9149 10.9371 10.8448 10.9375L8.31247 10.8956L5.7842 10.9375H5.4762C5.22595 10.9375 5.00589 10.7669 4.94114 10.5184L4.30764 8.39523L2.64426 2.2698C2.6257 2.20181 2.62093 2.1308 2.63024 2.06095C2.63954 1.9911 2.66274 1.92381 2.69845 1.86306C2.73417 1.80231 2.78169 1.74932 2.8382 1.70722C2.89471 1.66512 2.95908 1.63476 3.02751 1.61792L4.1112 1.3318C4.24887 1.29428 4.39581 1.31298 4.51969 1.38379C4.64358 1.45459 4.73427 1.5717 4.77182 1.70936L4.83132 1.92767L5.55451 3.05205L5.48582 4.3383L6.54326 8.23205C6.55085 8.25917 6.55609 8.28601 6.55901 8.31255Z" fill="#E5BC3B"/>
<path d="M5.36397 12.25L5.36389 12.7094C5.4346 12.9544 5.47198 13.125 5.74535 13.125H10.9246C11.1498 13.125 11.3749 12.9062 11.3749 12.6875V12.25H5.36397Z" fill="#E5BC3B"/>
<path d="M6.11581 3.85044L5.64987 1.97926C5.6105 1.81301 5.45212 1.71501 5.29812 1.76182L5.19575 1.79157L4.82431 1.89657L5.48931 4.35619L5.80781 4.26432L5.91019 4.23413C6.06462 4.18732 6.15519 4.01669 6.11581 3.85044ZM9.40625 7.43751H5.03125C4.66813 7.43751 4.375 7.14438 4.375 6.78126C4.375 6.41813 4.66813 6.12501 5.03125 6.12501H9.40625C9.76937 6.12501 10.0625 6.41813 10.0625 6.78126C10.0625 7.14438 9.76937 7.43751 9.40625 7.43751ZM11.375 12.25L5.42763 12.25L5.26925 11.6463C5.17519 11.2875 5.43681 10.9375 5.80125 10.9375H10.8474C11.1392 10.9375 11.375 11.3488 11.375 11.6463V12.25Z" fill="#E5BC3B"/>
</svg>
