<svg width="24" height="24" viewBox="0 0 24 24" fill="none" xmlns="http://www.w3.org/2000/svg">
<g clip-path="url(#clip0_72_162)">
<path fill-rule="evenodd" clip-rule="evenodd" d="M12.75 1.5C12.75 1.30109 12.671 1.11032 12.5303 0.96967C12.3897 0.829018 12.1989 0.75 12 0.75C11.8011 0.75 11.6103 0.829018 11.4697 0.96967C11.329 1.11032 11.25 1.30109 11.25 1.5V3C11.25 3.19891 11.329 3.38968 11.4697 3.53033C11.6103 3.67098 11.8011 3.75 12 3.75C12.1989 3.75 12.3897 3.67098 12.5303 3.53033C12.671 3.38968 12.75 3.19891 12.75 3V1.5ZM22.5 12.75C22.6989 12.75 22.8897 12.671 23.0303 12.5303C23.171 12.3897 23.25 12.1989 23.25 12C23.25 11.8011 23.171 11.6103 23.0303 11.4697C22.8897 11.329 22.6989 11.25 22.5 11.25H21C20.8011 11.25 20.6103 11.329 20.4697 11.4697C20.329 11.6103 20.25 11.8011 20.25 12C20.25 12.1989 20.329 12.3897 20.4697 12.5303C20.6103 12.671 20.8011 12.75 21 12.75H22.5ZM3.75 12C3.75 12.1989 3.67098 12.3897 3.53033 12.5303C3.38968 12.671 3.19891 12.75 3 12.75H1.5C1.30109 12.75 1.11032 12.671 0.96967 12.5303C0.829018 12.3897 0.75 12.1989 0.75 12C0.75 11.8011 0.829018 11.6103 0.96967 11.4697C1.11032 11.329 1.30109 11.25 1.5 11.25H3C3.19891 11.25 3.38968 11.329 3.53033 11.4697C3.67098 11.6103 3.75 11.8011 3.75 12ZM5.1055 6.1665C5.2462 6.3072 5.43702 6.38624 5.636 6.38624C5.83498 6.38624 6.0258 6.3072 6.1665 6.1665C6.3072 6.0258 6.38624 5.83498 6.38624 5.636C6.38624 5.43702 6.3072 5.2462 6.1665 5.1055L5.1055 4.0455C5.03663 3.97265 4.95386 3.91436 4.86207 3.87405C4.77028 3.83374 4.67135 3.81224 4.57111 3.81082C4.47088 3.80941 4.37137 3.8281 4.27848 3.86579C4.18559 3.90349 4.1012 3.95943 4.0303 4.03029C3.9594 4.10116 3.90342 4.18553 3.86568 4.2784C3.82794 4.37127 3.80921 4.47076 3.81058 4.571C3.81195 4.67124 3.8334 4.77018 3.87366 4.86199C3.91393 4.95379 3.97219 5.0366 4.045 5.1055L5.1055 6.1665ZM17.8335 6.1665C17.9032 6.2362 17.9858 6.29148 18.0769 6.3292C18.1679 6.36692 18.2655 6.38634 18.364 6.38634C18.4625 6.38634 18.5601 6.36692 18.6511 6.3292C18.7421 6.29148 18.8249 6.2362 18.8945 6.1665L19.955 5.1055C20.0278 5.0366 20.0861 4.95379 20.1263 4.86199C20.1666 4.77018 20.1881 4.67124 20.1894 4.571C20.1908 4.47076 20.1721 4.37127 20.1343 4.2784C20.0966 4.18553 20.0406 4.10116 19.9697 4.03029C19.8988 3.95943 19.8144 3.90349 19.7215 3.86579C19.6286 3.8281 19.5291 3.80941 19.4289 3.81082C19.3287 3.81224 19.2297 3.83374 19.1379 3.87405C19.0461 3.91436 18.9634 3.97265 18.8945 4.0455L17.8335 5.1055C17.7638 5.17515 17.7085 5.25785 17.6708 5.34888C17.6331 5.4399 17.6137 5.53747 17.6137 5.636C17.6137 5.73453 17.6331 5.8321 17.6708 5.92312C17.7085 6.01415 17.7638 6.09685 17.8335 6.1665ZM12 4.75C7.996 4.75 4.75 7.996 4.75 12C4.75 12.3163 4.76983 12.6272 4.8095 12.9325C5.55478 12.89 6.29346 13.0928 6.9125 13.51C7.396 13.838 7.9485 14 8.5 14C9.06637 13.9998 9.61954 13.829 10.0875 13.51C10.653 13.1302 11.3188 12.9273 12 12.9273C12.6812 12.9273 13.347 13.1302 13.9125 13.51C14.396 13.838 14.9485 14 15.5 14C16.0664 13.9998 16.6195 13.829 17.0875 13.51C17.7065 13.0928 18.4452 12.89 19.1905 12.9325C19.2302 12.6272 19.25 12.3163 19.25 12C19.25 7.996 16.004 4.75 12 4.75ZM20.211 14.545C19.8525 14.3055 19.4311 14.1777 19 14.1777C18.5689 14.1777 18.1475 14.3055 17.789 14.545C17.114 15.0043 16.3164 15.2499 15.5 15.25C14.7025 15.25 13.905 15.015 13.211 14.545C12.8525 14.3055 12.4311 14.1777 12 14.1777C11.5689 14.1777 11.1475 14.3055 10.789 14.545C10.114 15.0043 9.31644 15.2499 8.5 15.25C7.7025 15.25 6.905 15.015 6.211 14.545C5.85253 14.3055 5.4311 14.1777 5 14.1777C4.5689 14.1777 4.14747 14.3055 3.789 14.545C3.11398 15.0043 2.31644 15.2499 1.5 15.25C1.30109 15.25 1.11032 15.329 0.96967 15.4697C0.829018 15.6103 0.75 15.8011 0.75 16C0.75 16.865 0.8075 17.837 0.8835 18.7435H1.7295C2.46665 18.7014 3.1785 18.4598 3.789 18.0445C4.5115 17.5545 5.489 17.5545 6.211 18.0445C6.88596 18.5039 7.68351 18.7498 8.5 18.75C9.2975 18.75 10.095 18.515 10.789 18.045C11.5115 17.555 12.489 17.555 13.211 18.045C13.886 18.5043 14.6836 18.7499 15.5 18.75C16.2975 18.75 17.095 18.515 17.789 18.045C18.5115 17.555 19.489 17.555 20.211 18.045C20.8215 18.4601 21.5334 18.7015 22.2705 18.7435H23.1165C23.1925 17.837 23.25 16.8645 23.25 16C23.25 15.8011 23.171 15.6103 23.0303 15.4697C22.8897 15.329 22.6989 15.25 22.5 15.25C21.7025 15.25 20.905 15.015 20.211 14.545ZM22.25 20.243H22.9475C22.7843 20.9748 22.3902 21.6347 21.8232 22.1253C21.2563 22.6159 20.5466 22.9111 19.799 22.9675C18.0615 23.1025 15.396 23.2495 12 23.2495C8.604 23.2495 5.9385 23.103 4.201 22.9675C3.45338 22.9111 2.74371 22.6159 2.17676 22.1253C1.60982 21.6347 1.21566 20.9748 1.0525 20.243H1.75L1.789 20.242C2.80591 20.1887 3.7888 19.8579 4.631 19.2855C4.74096 19.2145 4.86909 19.1767 5 19.1767C5.13091 19.1767 5.25904 19.2145 5.369 19.2855C6.29238 19.9136 7.38324 20.2496 8.5 20.25C9.5925 20.25 10.6845 19.928 11.631 19.286C11.741 19.215 11.8691 19.1772 12 19.1772C12.1309 19.1772 12.259 19.215 12.369 19.286C13.2924 19.9139 14.3833 20.2498 15.5 20.25C16.5925 20.25 17.6845 19.928 18.631 19.286C18.741 19.215 18.8691 19.1772 19 19.1772C19.1309 19.1772 19.259 19.215 19.369 19.286C20.2223 19.8655 21.2196 20.1965 22.25 20.243Z" fill="#E5BC3B"/>
</g>
<defs>
<clipPath id="clip0_72_162">
<rect width="24" height="24" fill="white"/>
</clipPath>
</defs>
</svg>
