<svg width="19" height="19" viewBox="0 0 19 19" fill="none" xmlns="http://www.w3.org/2000/svg">
<path d="M14.6788 10.2738H17.8955C18.0888 10.4671 18.1973 11.0312 18.1973 11.3045C18.1973 11.5778 18.0888 11.8399 17.8955 12.0332L12.065 17.8638C11.8706 18.0515 11.6102 18.1554 11.34 18.1531C11.0698 18.1507 10.8112 18.0423 10.6201 17.8512C10.4291 17.6601 10.3207 17.4016 10.3183 17.1314C10.316 16.8611 10.4198 16.6008 10.6076 16.4064L14.6788 12.3352H1.02946C0.756108 12.3352 0.49395 12.2266 0.300659 12.0333C0.107369 11.84 -0.0012207 11.5779 -0.0012207 11.3045C-0.0012207 11.0312 0.107369 10.769 0.300659 10.5757C0.49395 10.3824 0.756108 10.2738 1.02946 10.2738L14.6788 10.2738Z" fill="#E5BC3B"/>
<path d="M3.51726 8.68469H0.300499C0.107275 8.49141 -0.00127029 7.92731 -0.00127029 7.65401C-0.00127029 7.38071 0.107275 7.1186 0.300499 6.92532L6.13107 1.09474C6.32546 0.906998 6.58581 0.803111 6.85605 0.805459C7.12629 0.807807 7.3848 0.916204 7.5759 1.1073C7.76699 1.2984 7.87539 1.55691 7.87774 1.82715C7.88009 2.09739 7.7762 2.35774 7.58845 2.55213L3.51726 6.62333H17.1666C17.4399 6.62333 17.7021 6.73192 17.8954 6.92521C18.0887 7.1185 18.1973 7.38066 18.1973 7.65401C18.1973 7.92736 18.0887 8.18952 17.8954 8.38281C17.7021 8.5761 17.4399 8.68469 17.1666 8.68469L3.51726 8.68469Z" fill="#E5BC3B"/>
</svg>
